<svg id="_001-apoyo" data-name="001-apoyo" xmlns="http://www.w3.org/2000/svg" width="54.886" height="49.856" viewBox="0 0 54.886 49.856">
  <g id="Grupo_1616" data-name="Grupo 1616" transform="translate(50.125 32.726)">
    <g id="Grupo_1615" data-name="Grupo 1615">
      <path id="Trazado_2580" data-name="Trazado 2580" d="M472.031,331.657l-2.617-2.6a1.072,1.072,0,0,0-1.51,1.523l2.616,2.6a1.072,1.072,0,0,0,1.51-1.522Z" transform="translate(-467.587 -328.751)"/>
    </g>
  </g>
  <g id="Grupo_1618" data-name="Grupo 1618" transform="translate(47.454 30.068)">
    <g id="Grupo_1617" data-name="Grupo 1617">
      <path id="Trazado_2581" data-name="Trazado 2581" d="M444.507,304.266a1.072,1.072,0,0,0-1.516,0l0,0a1.072,1.072,0,1,0,1.518,0Z" transform="translate(-442.675 -303.952)"/>
    </g>
  </g>
  <g id="Grupo_1620" data-name="Grupo 1620" transform="translate(0 0)">
    <g id="Grupo_1619" data-name="Grupo 1619">
      <path id="Trazado_2582" data-name="Trazado 2582" d="M40.145,58.788l10.4-10.4A4.038,4.038,0,0,0,48.6,41.595a4.042,4.042,0,0,0-2.978-5.684,4.034,4.034,0,0,0-3.147-5.244,4.042,4.042,0,0,0-5.767-4.82l-.1-.111a7.155,7.155,0,0,0-5.221-2.273H22.961a1.072,1.072,0,0,0-1.072,1.072V25.94a4.871,4.871,0,0,0,.277,1.626,4.041,4.041,0,0,0-5.385,5,4.04,4.04,0,0,0-3.151,5.245,4.04,4.04,0,0,0-2.976,5.682,4.041,4.041,0,0,0-1.949,6.794l2.139,2.139L.314,62.957A1.072,1.072,0,1,0,1.83,64.473L12.462,53.841a4.038,4.038,0,0,0,6.031-3.676c.054,0,.109,0,.163,0a4.037,4.037,0,0,0,4.04-4.038c0-.055,0-.109,0-.163.054,0,.107,0,.161,0a4.037,4.037,0,0,0,4.04-4.038c0-.055,0-.109,0-.163.054,0,.107,0,.161,0a4.038,4.038,0,0,0,3.125-6.6l7.117-7.117a1.9,1.9,0,1,1,2.681,2.681l-1.049,1.049L35.118,35.6a1.072,1.072,0,1,0,1.516,1.516L40.442,33.3a1.9,1.9,0,1,1,2.681,2.681l-1.049,1.049-2.758,2.758a1.072,1.072,0,1,0,1.516,1.516l2.758-2.758a1.9,1.9,0,1,1,2.681,2.681l-1.44,1.44-1.318,1.318a1.072,1.072,0,1,0,1.516,1.516l1.319-1.319a1.9,1.9,0,0,1,2.68,2.682l-10.4,10.4a14.525,14.525,0,0,1-9.774,4.258,1.072,1.072,0,0,0-.721.315l-9.608,9.644A1.072,1.072,0,1,0,20.043,73l7.067-7.093a9.966,9.966,0,0,0,6.053,1.557L38.694,73a1.072,1.072,0,0,0,1.516-1.516L34.33,65.6a1.073,1.073,0,0,0-.846-.311l-.34.028a7.827,7.827,0,0,1-4.474-.974l.689-.692A16.66,16.66,0,0,0,40.145,58.788ZM15.8,51.669a1.9,1.9,0,0,1-2.681,0l-2.9-2.9A1.9,1.9,0,1,1,12.9,46.09l2.9,2.9A1.9,1.9,0,0,1,15.8,51.669Zm4.2-4.2a1.9,1.9,0,0,1-2.681,0l-2.9-2.9-1.441-1.441a1.9,1.9,0,1,1,2.681-2.681L20,44.79h0a1.9,1.9,0,0,1,0,2.681Zm4.2-4.2a1.9,1.9,0,0,1-2.681,0l-5.387-5.387a1.9,1.9,0,0,1,2.68-2.682l2.455,2.455,2.933,2.933h0a1.9,1.9,0,0,1,0,2.681Zm4.2-4.2a1.9,1.9,0,0,1-2.681,0l-5.387-5.387,0,0-1.048-1.048a1.9,1.9,0,0,1,2.681-2.681l6.436,6.436a1.9,1.9,0,0,1,0,2.682Zm.282-5.432L25.729,30.7a4.906,4.906,0,0,0,1.027.109h.024l2.942-.014a1.072,1.072,0,0,0,0-2.144h-.005l-2.942.014h-.013a2.723,2.723,0,0,1-2.723-2.723v-.334h7.347a5,5,0,0,1,3.651,1.59l.044.047Z" transform="translate(0.001 -23.462)"/>
    </g>
  </g>
</svg>
