<svg xmlns="http://www.w3.org/2000/svg" width="19.275" height="22.028" viewBox="0 0 19.275 22.028">
  <path id="arrows-from-line" d="M12.735,16.827a1.03,1.03,0,0,0-.73.3L10.67,18.5V14.8a1.033,1.033,0,1,0-2.065,0v3.7L7.27,17.17a1.062,1.062,0,0,0-.73-.343,1.033,1.033,0,0,0-.73,1.763l3.1,3.1a.922.922,0,0,0,.73.341,1.047,1.047,0,0,0,.73-.3l3.1-3.1a1.047,1.047,0,0,0,.3-.768A1.059,1.059,0,0,0,12.735,16.827Zm-6.2-11.7a1.03,1.03,0,0,0,.73-.3L8.6,3.524v3.7a1.033,1.033,0,1,0,2.065,0v-3.7l1.335,1.335a.993.993,0,0,0,.73.265,1.005,1.005,0,0,0,.73-1.724L10.368.3A1.061,1.061,0,0,0,9.6,0a1.03,1.03,0,0,0-.693.3l-3.1,3.1a1.026,1.026,0,0,0-.3.73A1,1,0,0,0,6.54,5.124Zm11.7,4.857H1.033A1.024,1.024,0,0,0,0,10.976a1.092,1.092,0,0,0,1.033,1.071h17.21a1.033,1.033,0,1,0,0-2.065Z" fill="#acacac"/>
</svg>
