<svg id="_005-campana" data-name="005-campana" xmlns="http://www.w3.org/2000/svg" width="12.785" height="16.131" viewBox="0 0 12.785 16.131">
  <path id="Trazado_319" data-name="Trazado 319" d="M184.9,465.044a2.437,2.437,0,0,0,4.461,0Z" transform="translate(-180.742 -450.368)" fill="#ff8900"/>
  <path id="Trazado_320" data-name="Trazado 320" d="M198.148,1.541a5.481,5.481,0,0,1,1.872.328V1.8a1.8,1.8,0,0,0-1.8-1.8h-.149a1.8,1.8,0,0,0-1.8,1.8v.071A5.492,5.492,0,0,1,198.148,1.541Z" transform="translate(-191.756 0)" fill="#ff8900"/>
  <path id="Trazado_321" data-name="Trazado 321" d="M65.313,90.077H53.5a.481.481,0,0,1-.475-.369.459.459,0,0,1,.253-.523,2.507,2.507,0,0,0,.763-1.037,11.983,11.983,0,0,0,.8-4.742,4.57,4.57,0,0,1,9.14-.018c0,.006,0,.012,0,.018a11.983,11.983,0,0,0,.8,4.742,2.506,2.506,0,0,0,.763,1.037.459.459,0,0,1,.253.523A.481.481,0,0,1,65.313,90.077Zm.227-.889h0Z" transform="translate(-53.013 -76.348)" fill="#ff8900"/>
</svg>
