<svg xmlns="http://www.w3.org/2000/svg" width="45" height="40" viewBox="0 0 45 40">
  <path id="Trazado_13079" data-name="Trazado 13079" d="M26.25-30a1.252,1.252,0,0,1,1.25,1.25,1.252,1.252,0,0,1-1.25,1.25h-7.5a1.252,1.252,0,0,1-1.25-1.25A1.252,1.252,0,0,1,18.75-30ZM14.375-7.5A1.871,1.871,0,0,1,12.5-5.625,1.871,1.871,0,0,1,10.625-7.5,1.871,1.871,0,0,1,12.5-9.375,1.871,1.871,0,0,1,14.375-7.5Zm16.25,0A1.871,1.871,0,0,1,32.5-9.375,1.871,1.871,0,0,1,34.375-7.5,1.871,1.871,0,0,1,32.5-5.625,1.871,1.871,0,0,1,30.625-7.5ZM5.648-29.541C7.539-31.87,12.828-35,22.5-35c10.359,0,15.094,3.121,16.891,5.484A3.206,3.206,0,0,1,40-27.566V-5A4.991,4.991,0,0,1,37.5-.672V3.75a1.25,1.25,0,0,1-2.5,0V0H10V3.75a1.25,1.25,0,0,1-2.5,0V-.672A4.986,4.986,0,0,1,5-5V-27.566A3.1,3.1,0,0,1,5.648-29.541ZM22.5-32.5c-9.211,0-13.656,2.986-14.91,4.535a.647.647,0,0,0-.09.4V-25h30v-2.566a.8.8,0,0,0-.1-.439C36.242-29.522,32.406-32.5,22.5-32.5ZM21.25-15v-7.5H7.5V-15Zm2.5,0H37.5v-7.5H23.75ZM10-2.5H35A2.5,2.5,0,0,0,37.5-5v-7.5H7.5V-5A2.5,2.5,0,0,0,10-2.5ZM2.5-16.25A1.252,1.252,0,0,1,1.25-15,1.252,1.252,0,0,1,0-16.25v-7.5A1.252,1.252,0,0,1,1.25-25,1.252,1.252,0,0,1,2.5-23.75Zm42.5,0A1.254,1.254,0,0,1,43.75-15a1.254,1.254,0,0,1-1.25-1.25v-7.5A1.254,1.254,0,0,1,43.75-25,1.254,1.254,0,0,1,45-23.75Z" transform="translate(0 35)"/>
</svg>
