<svg xmlns="http://www.w3.org/2000/svg" width="40.849" height="35.368" viewBox="0 0 40.849 35.368">
  <g id="Grupo_20260" data-name="Grupo 20260" transform="translate(-45.007 -29.822)">
    <path id="Trazado_13092" data-name="Trazado 13092" d="M45.068,61.511a3.017,3.017,0,0,1,1.644-2.162,4.321,4.321,0,0,1,1.913-.262c.546,0,.541,0,.548-.552a5.6,5.6,0,0,1,.109-1.582,2.367,2.367,0,0,1,4.637.564c.018.425.017.851,0,1.276-.007.217.044.3.282.3.85-.013,1.7-.011,2.552,0,.208,0,.278-.063.271-.273-.013-.411-.013-.824,0-1.236a2.363,2.363,0,0,1,4.723-.107,12,12,0,0,1,.015,1.275c-.009.255.055.349.328.343.824-.017,1.648-.013,2.472,0,.218,0,.307-.047.3-.284-.019-.4-.018-.8,0-1.2a2.375,2.375,0,0,1,4.672-.6,6.394,6.394,0,0,1,.085,1.746c-.005.263.068.339.332.334.8-.017,1.6-.023,2.392,0,.318.01.373-.106.365-.388a9.8,9.8,0,0,1,.026-1.354,2.364,2.364,0,0,1,4.71.073c.032.463.022.93.011,1.4-.005.21.061.272.27.271a6.41,6.41,0,0,1,1.666.08,2.822,2.822,0,0,1,2.179,2.982q.007,4.845-.006,9.69a.763.763,0,0,0,.338.694,9.627,9.627,0,0,1,3.655,5.4A9.871,9.871,0,0,1,83.7,86.832a.631.631,0,0,1-.909.175c-.327-.148-.341-.412-.242-.7a2.376,2.376,0,0,1,.372-.611,8.691,8.691,0,0,0-.247-10.632A8.492,8.492,0,0,0,76.9,71.854,8.654,8.654,0,0,0,67.664,77.5a8.441,8.441,0,0,0,2,9.2,8.332,8.332,0,0,0,5.554,2.559,8.653,8.653,0,0,0,5.552-1.465,1.744,1.744,0,0,1,.414-.238c.306-.1.582-.084.74.257.181.477.126.669-.273.951a10.022,10.022,0,0,1-12.107-.413,1.355,1.355,0,0,0-.929-.334c-6.807.011-13.613,0-20.42.013a2.884,2.884,0,0,1-2.831-1.612,6.6,6.6,0,0,1-.291-.814V64.383a.607.607,0,0,1,.713-.465.732.732,0,0,1,.6.783c.011.319.007.638,0,.957,0,.251.11.367.36.361.119,0,.239,0,.359,0H79.524c.766,0,.767,0,.767-.768,0-.944,0-1.888,0-2.831a3.3,3.3,0,0,0-.138-.984,1.405,1.405,0,0,0-1.264-1c-.318-.019-.638,0-.957-.006-.253,0-.36.114-.357.364,0,.319,0,.638,0,.957a2.486,2.486,0,0,1-4.935.409,6.934,6.934,0,0,1-.086-1.31c.012-.309-.122-.427-.426-.423q-.977.014-1.954,0c-.311,0-.425.129-.418.431a8,8,0,0,1-.053,1.193,2.5,2.5,0,0,1-2.546,2.178,2.529,2.529,0,0,1-2.416-2.464c-.017-.305-.011-.611,0-.917.006-.275-.091-.422-.39-.419-.7.006-1.409,0-2.114,0-.276,0-.377.13-.372.392.005.319,0,.638,0,.957a2.471,2.471,0,0,1-4.941.033c-.009-.346,0-.691,0-1.037,0-.228-.106-.342-.339-.343q-1.1-.005-2.193,0c-.234,0-.335.114-.337.343,0,.332,0,.665,0,1A2.481,2.481,0,0,1,49.1,62.1a7.969,7.969,0,0,1-.089-1.191c0-.431-.045-.467-.488-.475-.2,0-.4,0-.6,0a1.449,1.449,0,0,0-1.535,1.4c-.01.093-.008.186-.017.279a.743.743,0,0,1-.668.766.613.613,0,0,1-.641-.492Z" transform="translate(-0.061 -25.41)"/>
    <path id="Trazado_13093" data-name="Trazado 13093" d="M45.676,128.424a.926.926,0,0,0-.608.409v-1.994a.812.812,0,0,0,.587.412A1.1,1.1,0,0,1,45.676,128.424Z" transform="translate(-0.061 -89.859)" fill="#fdfaf9"/>
    <path id="Trazado_13094" data-name="Trazado 13094" d="M279.2,235.915a.712.712,0,0,0-1,0,8.86,8.86,0,0,1-12.906-3.181,8.847,8.847,0,1,1,15.745-8.072,8.647,8.647,0,0,1-.861,9.357c-.386.54-.406.658-.1,1.091Z" transform="translate(-197.345 -173.511)" fill="#00ffe0"/>
    <path id="Trazado_13095" data-name="Trazado 13095" d="M50.958,109.4q-.011-.587-.021-1.174c.469-.117.593-.268.609-.741a1.641,1.641,0,0,1,1.835-1.775c.266,0,.532.01.8,0,.211-.01.275.074.275.279a13.853,13.853,0,0,0,.032,1.434,2.364,2.364,0,0,0,4.707-.019c.035-.463.024-.93.014-1.4,0-.221.059-.3.29-.3.837.011,1.675.013,2.513,0,.261,0,.31.1.3.332-.013.4-.012.8,0,1.2a2.362,2.362,0,0,0,4.72.075c.026-.424.024-.851.013-1.276-.006-.232.055-.332.31-.328.837.014,1.675.01,2.513,0,.205,0,.281.061.275.272-.012.412-.018.825,0,1.236a2.371,2.371,0,0,0,4.659.584,5.194,5.194,0,0,0,.094-1.665c-.02-.367.108-.443.447-.431.744.025,1.489.021,2.233,0,.3-.008.424.064.408.392a8.44,8.44,0,0,0,.03,1.354,2.365,2.365,0,0,0,4.708-.077,12.716,12.716,0,0,0,.01-1.355c-.009-.252.08-.324.319-.311.345.019.692,0,1.036.015a1.54,1.54,0,0,1,1.534,1.441c.1,1.086.026,2.179.034,3.268,0,.356.154.815-.065,1.041-.237.244-.7.078-1.07.078q-16.254.008-32.507.013c-.377,0-.529-.075-.48-.472.036-.288,0-.585.01-.876A.7.7,0,0,0,50.958,109.4Z" transform="translate(-5.344 -70.831)" fill="#7e67ef"/>
    <path id="Trazado_13096" data-name="Trazado 13096" d="M59.9,250.814c-.877,0-1.753-.01-2.63.006-.25,0-.309-.068-.308-.311q.015-2.55,0-5.1c0-.279.1-.321.343-.32q2.59.013,5.18,0c.279,0,.358.077.356.355q-.018,2.51,0,5.021c0,.273-.065.364-.35.358C61.626,250.8,60.762,250.814,59.9,250.814Z" transform="translate(-10.764 -196.29)" fill="#cbcbcb"/>
    <path id="Trazado_13097" data-name="Trazado 13097" d="M130.538,250.817c-.877,0-1.753-.007-2.63,0-.223,0-.3-.06-.3-.288q.012-2.57,0-5.14c0-.261.1-.3.329-.3q2.61.012,5.22,0c.264,0,.331.074.329.334q-.017,2.53,0,5.06c0,.3-.1.343-.362.338C132.265,250.807,131.4,250.817,130.538,250.817Z" transform="translate(-74.354 -196.293)" fill="#ff7300"/>
    <path id="Trazado_13098" data-name="Trazado 13098" d="M59.926,176.154c.877,0,1.753.007,2.63,0,.226,0,.294.063.293.291q-.013,2.55,0,5.1c0,.244-.067.316-.314.315q-2.63-.015-5.26,0c-.254,0-.3-.077-.3-.314q.015-2.53,0-5.061c0-.252.055-.339.324-.334C58.173,176.166,59.05,176.154,59.926,176.154Z" transform="translate(-10.776 -134.24)" fill="#cbcbcb"/>
    <path id="Trazado_13099" data-name="Trazado 13099" d="M130.559,181.858c-.863,0-1.727-.015-2.59.008-.309.008-.373-.091-.37-.381q.02-2.49,0-4.981c0-.287.089-.349.359-.347q2.59.018,5.18,0c.242,0,.343.036.341.316q-.022,2.53,0,5.061c0,.259-.067.335-.329.33C132.286,181.848,131.422,181.858,130.559,181.858Z" transform="translate(-74.343 -134.248)" fill="#cbcbcb"/>
    <path id="Trazado_13100" data-name="Trazado 13100" d="M201.22,181.844c-.89,0-1.78-.007-2.67.005-.227,0-.288-.065-.287-.289q.013-2.571,0-5.142c0-.244.09-.276.3-.275,1.754.007,3.507.012,5.261,0,.29,0,.319.113.318.349q-.011,2.511,0,5.022c0,.254-.059.345-.331.339C202.948,181.833,202.084,181.844,201.22,181.844Z" transform="translate(-137.943 -134.234)" fill="#cbcbcb"/>
    <path id="Trazado_13101" data-name="Trazado 13101" d="M130.517,319.987c-.85,0-1.7-.009-2.551.005-.262,0-.371-.049-.369-.344.014-1.674.01-3.348,0-5.022,0-.237.029-.349.318-.347q2.631.023,5.261,0c.265,0,.3.093.3.32q-.013,2.531,0,5.062c0,.259-.066.336-.329.331C132.271,319.977,131.394,319.987,130.517,319.987Z" transform="translate(-74.342 -258.566)" fill="#cbcbcb"/>
    <path id="Trazado_13102" data-name="Trazado 13102" d="M59.923,314.293c.863,0,1.727.012,2.589-.007.27-.006.331.08.329.335q-.015,2.51,0,5.02c0,.275-.072.362-.354.359-1.248-.015-2.5,0-3.745-.009a1.634,1.634,0,0,1-1.773-1.792c0-1.2.007-2.39-.007-3.585,0-.264.072-.331.33-.326C58.17,314.3,59.047,314.293,59.923,314.293Z" transform="translate(-10.768 -258.572)" fill="#cbcbcb"/>
    <path id="Trazado_13103" data-name="Trazado 13103" d="M203.623,320c-1.713.007-3.426.012-5.139.025-.193,0-.21-.09-.21-.243q0-2.61,0-5.221c0-.193.059-.247.248-.244,1.142.013,2.284.016,3.426.021.212.336.108.723.164,1.083a11.983,11.983,0,0,0,1.393,4.074C203.59,319.645,203.748,319.789,203.623,320Z" transform="translate(-137.953 -258.596)" fill="#c8c8c8"/>
    <path id="Trazado_13104" data-name="Trazado 13104" d="M198.457,250.945l.005-5.58c.109-.075.232-.039.348-.04q2.349,0,4.7,0c.434,0,.464.049.242.445a12.242,12.242,0,0,0-1.471,4.348c-.122.871-.134.869-1.005.869-.81,0-1.619,0-2.429,0A.684.684,0,0,1,198.457,250.945Z" transform="translate(-138.119 -196.496)" fill="#cbcbcb"/>
    <path id="Trazado_13105" data-name="Trazado 13105" d="M268.995,176.169a9.135,9.135,0,0,1,1.384-.03c1.377-.007,2.754,0,4.131-.008.234,0,.329.044.314.3-.026.462-.016.926-.021,1.389a4.747,4.747,0,0,1-1.271.43,12.585,12.585,0,0,0-4.137,2.479,1.45,1.45,0,0,1-.185.15c-.177.111-.26.077-.259-.148.006-1.5,0-3,.007-4.5A.127.127,0,0,1,268.995,176.169Z" transform="translate(-201.567 -134.222)" fill="#cbcbcb"/>
    <path id="Trazado_13106" data-name="Trazado 13106" d="M255.009,70.394c0-.65,0-1.3,0-1.951a1.195,1.195,0,1,1,2.379,0q.01,1.951,0,3.9a1.195,1.195,0,1,1-2.379,0C255,71.7,255.009,71.045,255.009,70.394Z" transform="translate(-189.017 -36.123)" fill="#666"/>
    <path id="Trazado_13107" data-name="Trazado 13107" d="M100.3,70.417c0,.677.006,1.354,0,2.031a1.173,1.173,0,0,1-2.339.182,1.813,1.813,0,0,1-.036-.315c0-1.261-.006-2.522,0-3.784a1.247,1.247,0,0,1,.706-1.239,1.182,1.182,0,0,1,1.67,1.093Q100.3,69.4,100.3,70.417Z" transform="translate(-47.63 -36.161)" fill="#666"/>
    <path id="Trazado_13108" data-name="Trazado 13108" d="M335.734,70.5c0,.664.005,1.327,0,1.991a1.176,1.176,0,0,1-2.344.187,2.106,2.106,0,0,1-.033-.355c0-1.234-.009-2.469,0-3.7.008-.975.693-1.554,1.532-1.319a1.166,1.166,0,0,1,.841,1.129C335.741,69.122,335.734,69.812,335.734,70.5Z" transform="translate(-259.532 -36.228)" fill="#666"/>
    <path id="Trazado_13109" data-name="Trazado 13109" d="M179,70.379c0,.677.007,1.353,0,2.03a1.168,1.168,0,1,1-2.334-.008q-.011-2.03,0-4.06a1.169,1.169,0,1,1,2.334.008C179.01,69.025,179,69.7,179,70.379Z" transform="translate(-118.502 -36.106)" fill="#666"/>
    <path id="Trazado_13110" data-name="Trazado 13110" d="M268.873,176.543v4.735c.535-.426,1.006-.845,1.52-1.2a10.5,10.5,0,0,1,4.288-1.879c.005.53.005,1.061.018,1.591a.239.239,0,0,1-.21.274,10.1,10.1,0,0,0-3.785,2.034.422.422,0,0,1-.288.112c-.451,0-.9,0-1.354,0-.133,0-.229-.017-.23-.188-.009-1.816-.04-3.631.013-5.447C268.847,176.562,268.864,176.552,268.873,176.543Z" transform="translate(-201.446 -134.596)" fill="#b6b6b6"/>
    <path id="Trazado_13111" data-name="Trazado 13111" d="M345.342,176.519c.112.095.056.223.056.334,0,1.153-.009,2.306,0,3.459,0,.3-.033.411-.362.256a9.733,9.733,0,0,0-5.144-.867c-.293.028-.4-.02-.379-.338.032-.475.016-.953.021-1.43a4.253,4.253,0,0,1,2.028-.16,11.59,11.59,0,0,1,3.333.677c.257.095.335-.006.332-.252q-.008-.6,0-1.191A.64.64,0,0,1,345.342,176.519Z" transform="translate(-265.076 -134.575)" fill="#b6b6b6"/>
    <path id="Trazado_13112" data-name="Trazado 13112" d="M236.7,320.039c-.217-.436-.445-.868-.647-1.31a10.154,10.154,0,0,1-1.029-4.352c.5,0,1.009-.007,1.513-.016.149,0,.238.013.254.2a9.987,9.987,0,0,0,2.074,5.379c.013.017.006.048.011.1Z" transform="translate(-171.031 -258.638)" fill="#bfbfbf"/>
    <path id="Trazado_13113" data-name="Trazado 13113" d="M198.457,250.654c1.1,0,2.2,0,3.305.005.245,0,.342-.055.358-.327a10.717,10.717,0,0,1,.9-3.635,8.331,8.331,0,0,1,.852-1.623h-5.407c.051-.123.16-.068.241-.068,1.739,0,3.479.007,5.218-.006.312,0,.408.081.4.4-.022.876-.007,1.752-.009,2.629a1.472,1.472,0,0,1-.028.355,13.374,13.374,0,0,0-.4,2.148c-.013.149-.067.2-.22.2q-2.549,0-5.1,0C198.511,250.734,198.465,250.721,198.457,250.654Z" transform="translate(-138.119 -196.206)" fill="#b6b6b6"/>
    <path id="Trazado_13114" data-name="Trazado 13114" d="M345.413,176.207c0,.624-.01,1.247,0,1.871,0,.249,0,.354-.319.236a11.977,11.977,0,0,0-3.194-.711,16.067,16.067,0,0,0-2.291.02c0-.41-.006-.82-.015-1.229,0-.14.022-.22.191-.218C341.659,176.2,343.536,176.139,345.413,176.207Z" transform="translate(-265.146 -134.263)" fill="#cbcbcb"/>
    <path id="Trazado_13115" data-name="Trazado 13115" d="M269.248,245.226l-.524.724C268.539,245.293,268.608,245.183,269.248,245.226Z" transform="translate(-201.282 -196.407)" fill="#9a9a9a"/>
    <path id="Trazado_13116" data-name="Trazado 13116" d="M281.652,236.772c-.19-.5-.135-.675.32-1.008A7.434,7.434,0,1,1,280,237.917c.223-.379.432-.438.913-.281a.58.58,0,0,1,.239.845c-.173.43-.443.814-.584,1.263a6.131,6.131,0,0,0,3.8,7.79A6.1,6.1,0,1,0,287,235.691a5.982,5.982,0,0,0-4.206,1.085,1.254,1.254,0,0,1-.6.288A.471.471,0,0,1,281.652,236.772Z" transform="translate(-210.539 -186.622)"/>
    <path id="Trazado_13117" data-name="Trazado 13117" d="M292.278,250.1a.706.706,0,0,0,1-.017,5.208,5.208,0,0,1,1.857-.929c.006.205-.175.249-.3.335a6.734,6.734,0,0,0-.193,11.057c.139.1.355.155.332.4a5.812,5.812,0,0,1-3.545-3.043,6,6,0,0,1,.09-5.792c.2-.383.43-.755.021-1.144Z" transform="translate(-221.165 -199.951)" fill="#e4e4e4"/>
    <path id="Trazado_13118" data-name="Trazado 13118" d="M304.205,258.2c-.3-.236-.615-.454-.9-.711a6.861,6.861,0,0,1-1.771-7.847,6.536,6.536,0,0,1,2.682-3.1.994.994,0,0,0,.144-.131,6.208,6.208,0,1,1,2.651,12.086A5.26,5.26,0,0,1,304.205,258.2Z" transform="translate(-230.399 -197.201)" fill="#f9f9f9"/>
    <path id="Trazado_13119" data-name="Trazado 13119" d="M349.912,270.55c-.717,0-1.435,0-2.152,0-.547,0-.767-.2-.771-.73q-.014-2.212,0-4.424c0-.453.229-.7.591-.7.381-.005.6.244.6.725.005,1.182.012,2.365-.005,3.547,0,.3.061.406.387.4,1.155-.022,2.311-.008,3.467-.009a.98.98,0,0,1,.574.121.54.54,0,0,1,.244.622.561.561,0,0,1-.582.448c-.784,0-1.568,0-2.351,0Z" transform="translate(-271.8 -213.935)"/>
  </g>
</svg>
