<svg xmlns="http://www.w3.org/2000/svg" width="33.25" height="38" viewBox="0 0 33.25 38">
  <path id="Trazado_13085" data-name="Trazado 13085" d="M8.313-.25A1.189,1.189,0,0,1,9.5.938V4.5H23.75V.938a1.188,1.188,0,0,1,2.375,0V4.5H28.5a4.752,4.752,0,0,1,4.75,4.75V33a4.754,4.754,0,0,1-4.75,4.75H4.75A4.752,4.752,0,0,1,0,33V9.25A4.75,4.75,0,0,1,4.75,4.5H7.125V.938A1.189,1.189,0,0,1,8.313-.25ZM30.875,14H2.375V33A2.374,2.374,0,0,0,4.75,35.375H28.5A2.372,2.372,0,0,0,30.875,33ZM28.5,6.875H4.75A2.374,2.374,0,0,0,2.375,9.25v2.375h28.5V9.25A2.372,2.372,0,0,0,28.5,6.875Z" transform="translate(0 0.25)" fill="#de096b"/>
</svg>
