<svg xmlns="http://www.w3.org/2000/svg" width="40" height="35" viewBox="0 0 40 35">
  <path id="Trazado_13081" data-name="Trazado 13081" d="M6.25-11.875A1.873,1.873,0,0,1,8.125-13.75,1.871,1.871,0,0,1,10-11.875,1.871,1.871,0,0,1,8.125-10,1.873,1.873,0,0,1,6.25-11.875Zm27.5,0A1.871,1.871,0,0,1,31.875-10,1.871,1.871,0,0,1,30-11.875a1.871,1.871,0,0,1,1.875-1.875A1.871,1.871,0,0,1,33.75-11.875ZM3.773-19.008l2.711-9.038A6.25,6.25,0,0,1,12.469-32.5H27.531a6.246,6.246,0,0,1,5.984,4.454l2.711,9.038A7.478,7.478,0,0,1,40-12.5V1.25a1.25,1.25,0,0,1-2.5,0V-2.5H2.5V1.25a1.25,1.25,0,0,1-2.5,0V-12.5a7.485,7.485,0,0,1,3.773-6.508Zm2.894-.945A7.339,7.339,0,0,1,7.5-20h25a7.391,7.391,0,0,1,.836.047l-2.211-7.374A3.752,3.752,0,0,0,27.531-30H12.469a3.752,3.752,0,0,0-3.594,2.673L6.666-19.953ZM2.5-12.5V-5h35v-7.5a5,5,0,0,0-3.3-4.7l-.031.008-.008-.023A5.084,5.084,0,0,0,32.5-17.5H7.5a5.038,5.038,0,0,0-1.654.281l-.008.023L5.8-17.2a5,5,0,0,0-3.3,4.7Z" transform="translate(0 32.5)"/>
</svg>
