<svg id="Grupo_1233" data-name="Grupo 1233" xmlns="http://www.w3.org/2000/svg" width="66.574" height="53.484" viewBox="0 0 66.574 53.484">
  <path id="Trazado_2370" data-name="Trazado 2370" d="M838.77,2480.69a6.263,6.263,0,0,0-4.351.531c-1.414.732-2.79,1.536-4.192,2.288-2.381,1.275-4.3.688-5.1-1.7a11.825,11.825,0,0,1-.072-7.273c.937-3.033,5.313-16.923,6.191-20.943a4.758,4.758,0,0,0-.353-2.418,1.882,1.882,0,0,0-3.6.083,29.735,29.735,0,0,0-.821,2.892,90.077,90.077,0,0,1-4.68,12,.934.934,0,0,1-.872.49l-2.131-.107a.936.936,0,0,1-.879-1.081c.551-3.464,1.82-12.046,2.052-14.679a1.607,1.607,0,0,0-1.322-1.945c-1.046-.08-1.465.683-1.735,1.49-.372,1.115-3.519,11.124-5.1,15.911a1.159,1.159,0,0,1-1.1.8,1.172,1.172,0,0,1-1.079-.7c-1.219-2.813-2.36-5.664-3.668-8.434a7.507,7.507,0,0,0-2.161-2.546c-.942-.74-1.858-.2-1.877,1.027a8.341,8.341,0,0,0,.342,2.349c1.2,4.265,2.464,8.508,3.637,12.777a25.483,25.483,0,0,1,1.1,5.273c.264,5.014.35,10.041.439,15.063a5.476,5.476,0,0,0,3.551,5.042,17.149,17.149,0,0,0,7.478.861,6.719,6.719,0,0,0,2.626-.514c2.394-1.316,14.764-10.478,18.589-13.658.418-.348.908-1.231.746-1.527A2.908,2.908,0,0,0,838.77,2480.69Z" transform="translate(-801.924 -2444.331)" fill="#36c"/>
  <path id="Trazado_2371" data-name="Trazado 2371" d="M849.057,2470.162a1.1,1.1,0,0,1-1.7-.772l0-.019c-.386-6.9-1.045-20.19-1.236-21.412a2.536,2.536,0,0,0-1.028-1.625c-.664-.394-1.381.093-1.733.737a7.913,7.913,0,0,0-1.05,2.542c-.208,1.5-.76,11.175-1.2,14.462-.246,1.859-.857,1.948-2.424.953a4.473,4.473,0,0,0-2.583-.743c-3.96.361-7.9.868-11.846,1.386a1.359,1.359,0,0,0-.881,2.31,3.956,3.956,0,0,0,2.283.964c2.44-.171,4.861-.6,7.289-.921a5.426,5.426,0,0,1,1.436-.128c.307.044.574.379.859.584a2.854,2.854,0,0,1-.864.528c-1.768.324-3.545.6-5.321.876-.565.088-.734.35-.651.959.195,1.421,2.327,13.288,6.039,16.346a7.353,7.353,0,0,0,7.087,1.562,15.352,15.352,0,0,0,6.507-4.291,5.641,5.641,0,0,0,1.4-3.354,19.371,19.371,0,0,1,2.862-8.873C855.953,2466.127,850.741,2469.107,849.057,2470.162Z" transform="translate(-786.995 -2446.193)" fill="#36c"/>
  <path id="Trazado_2372" data-name="Trazado 2372" d="M827.821,2459.832c.734,2.587.816,2.565,3.546,2.323l.309-.026c1.358-.114,1.416-.263.767-1.513a30.79,30.79,0,0,1-3.649-10.843,1.839,1.839,0,0,0-.352-1.06c-.382-.384-.943-.89-1.376-.845a2.567,2.567,0,0,0-1.378,1.028c-.232.283-.2.785-.256,1.06a5.831,5.831,0,0,0,.07.758C826.264,2453.757,826.963,2456.817,827.821,2459.832Z" transform="translate(-785.294 -2445.01)" fill="#36c"/>
  <path id="Trazado_2373" data-name="Trazado 2373" d="M826.054,2460.473a1.042,1.042,0,0,0,.8.5,5.58,5.58,0,0,0,.842-.062,1.037,1.037,0,0,0,.811-1.425c-1.183-2.863-2.293-5.567-3.434-8.258-.3-.719-1.112-.779-1.412-.063a3.587,3.587,0,0,0-.312,2.261C824.132,2455.812,825.1,2458.141,826.054,2460.473Z" transform="translate(-786.831 -2443.037)" fill="#36c"/>
  <path id="Trazado_2374" data-name="Trazado 2374" d="M818.75,2459.727c-.389.874-.7,1.785-1.014,2.69a.445.445,0,0,0,.483.593,29.881,29.881,0,0,0,3.838-.819c1.03-.328,1.359-1.142,1.079-2.348-.229-.98-1-.773-1.667-.748a11.438,11.438,0,0,0-1.748.15C819.37,2459.312,818.864,2459.468,818.75,2459.727Z" transform="translate(-790.758 -2437.092)" fill="#36c"/>
</svg>
