<svg xmlns="http://www.w3.org/2000/svg" width="33.765" height="37.904" viewBox="0 0 33.765 37.904">
  <g id="Capa_2" data-name="Capa 2" transform="translate(-2.163 -0.09)">
    <g id="Capa_1" data-name="Capa 1">
      <path id="Trazado_13061" data-name="Trazado 13061" d="M186.441,219.418a7.821,7.821,0,0,1-1.089-.426,3.167,3.167,0,0,1-1.445-3.625c.034-.116.065-.233.108-.385h-2.752c-.82,0-1.137-.318-1.139-1.143s0-1.629,0-2.443a.938.938,0,0,1,1.077-1.055,2.054,2.054,0,1,0,.011-4.1c-.743,0-1.089-.328-1.089-1.077q-.008-1.385,0-2.771a.93.93,0,0,1,1.053-1.043h2.665a.933.933,0,0,1,1.042,1.02,2.048,2.048,0,0,0,4.093.1c.065-.869.338-1.123,1.208-1.123H192.7a.942.942,0,0,1,1.054,1.049c.006.936,0,1.873,0,2.835a3.141,3.141,0,0,1,3.932,1.256,2.9,2.9,0,0,1-.057,3.439,3.122,3.122,0,0,1-3.866,1.164v2.757c0,.783-.345,1.127-1.124,1.128h-2.787a3.65,3.65,0,0,1,.237,1.478,3.135,3.135,0,0,1-2.573,2.9c-.048.01-.1.01-.118.065Z" transform="translate(-162.296 -181.425)"/>
      <path id="Trazado_13062" data-name="Trazado 13062" d="M38.2,18.084a.609.609,0,0,1-.023.919,8.921,8.921,0,0,1-2.253,1.957.83.83,0,0,0-.384.462c-.232.674-.481,1.342-.736,2.008-.067.174-.074.261.129.357a1.168,1.168,0,0,1,.712,1.089c.016.764.025,1.53,0,2.294a1.173,1.173,0,0,1-.842,1.142c-.234.078-.263.2-.259.4.007.369.008.74-.014,1.109a.807.807,0,0,1-.65.8c-.246.055-.276.167-.263.37a1.738,1.738,0,0,1-.389,1.276,1.675,1.675,0,0,1-1.334.6q-.778.006-1.555,0a1.66,1.66,0,0,1-1.781-1.741c0-.273,0-.463-.351-.546a.794.794,0,0,1-.58-.812c-.008-.2,0-.4,0-.594,0-.426.093-.835-.52-1.014a1,1,0,0,1-.587-1.031c-.008-.739-.01-1.484,0-2.221a1.188,1.188,0,0,1,.684-1.1c.22-.111.259-.207.145-.413a1.781,1.781,0,0,1-.156-.41,3.719,3.719,0,0,0-1.912-2.708,8.88,8.88,0,0,1-3.1-9.39A8.817,8.817,0,0,1,29.2,4.118a8.8,8.8,0,0,1,6.2.876l.324.175a6.625,6.625,0,1,1,12.289,4.946H50.2a4.5,4.5,0,0,1,.594.028.919.919,0,0,1,.829.856c.034.54.022,1.084.015,1.626a.52.52,0,0,1-.408.512c-.461.1-.667-.02-.782-.472a3.772,3.772,0,0,1-.051-1c0-.268-.107-.375-.375-.371-.74.008-1.484,0-2.222,0a.661.661,0,0,0-.569.282c-.142.187-.285.373-.44.549a7.6,7.6,0,0,1-1.452,1.13.652.652,0,0,0-.362.627q.017,1.217,0,2.435c0,.282.1.4.388.4.467-.012.934-.006,1.4,0,1.046-.019,2.092,0,3.138-.009.454,0,.473-.026.482-.482a5.207,5.207,0,0,1,.049-1.068c.109-.471.327-.607.792-.5a.581.581,0,0,1,.419.62c0,.542.012,1.089,0,1.627a.982.982,0,0,1-1.066,1.06q-2.847.014-5.692,0a.982.982,0,0,1-1.083-1.081c-.014-.911-.011-1.824,0-2.735,0-.254-.044-.306-.31-.239a6.216,6.216,0,0,1-2.927.046c-.238-.054-.327,0-.345.245a8.169,8.169,0,0,1-.479,2.078c-.181.512-.312.589-.849.536-.37-.176-.465-.385-.328-.8A11.882,11.882,0,0,0,39.045,14a.539.539,0,0,0-.311-.624A6.517,6.517,0,0,1,35.259,7.1a1.055,1.055,0,0,0-.742-1.211,8.87,8.87,0,0,0-2.885-.741,7.862,7.862,0,0,0-3.788.67,7.763,7.763,0,0,0-4.482,5.245,7.719,7.719,0,0,0,1.758,7.377,7.766,7.766,0,0,0,3.551,2.313c.365.119.4.089.41-.3v-.814c-.014-.859,0-1.718-.007-2.573,0-.495-.02-.519-.524-.509a3.125,3.125,0,0,1-1.88-.538,2.35,2.35,0,0,1-.531-2.958,2.294,2.294,0,0,1,3.995.047,2.516,2.516,0,0,1,.261,1.36c-.006.766,0,.766.764.765h.333c.2,0,.249-.122.25-.292V14.2a2.264,2.264,0,0,1,2.112-2.268,2.295,2.295,0,1,1,.587,4.552,4.812,4.812,0,0,1-1.031.068c-.284-.012-.357.133-.356.387,0,1.208.008,2.417,0,3.624,0,.286.115.3.339.23a7.926,7.926,0,0,0,3.143-1.812,9.607,9.607,0,0,0,.735-.78A.6.6,0,0,1,38.2,18.084Z" transform="translate(-19.693 -0.816)"/>
      <path id="Trazado_13063" data-name="Trazado 13063" d="M69.771,42.83A7.942,7.942,0,0,1,73.4,43.949c.234.135.156.309.135.477a6.47,6.47,0,0,0,.955,4.344,6.284,6.284,0,0,0,2.552,2.346.428.428,0,0,1,.274.512,8.032,8.032,0,0,1-.485,2.078.668.668,0,0,0,.219.877,7.841,7.841,0,0,1-.7,1.277.663.663,0,0,0-.9.231,7.893,7.893,0,0,1-3.991,2.6c-.07.02-.142.04-.214.055a1.234,1.234,0,0,1-.138.01c0-1.223,0-2.442,0-3.661,0-.291-.135-.678.063-.847.167-.142.541-.05.823-.044a2.205,2.205,0,1,0-2-2.269v.111c-.027.339.144.883-.065.976a3.548,3.548,0,0,1-1.305.068c-.169,0-.152-.127-.153-.236,0-.3.006-.594,0-.891a2.192,2.192,0,0,0-4-1.221c-.037.049-.075.1-.112.146-.217-.069-.162-.256-.152-.4a8.828,8.828,0,0,1,4.832-7.419A2.43,2.43,0,0,1,69.771,42.83Z" transform="translate(-57.843 -38.592)" fill="#fff300"/>
      <path id="Trazado_13064" data-name="Trazado 13064" d="M276.575,108.53c-.517,0-.683.162-.693.68q-.01.626,0,1.255c0,.174-.03.27-.238.267-1.192-.015-2.384-.018-3.576-.025a.716.716,0,0,1-.119-.495v-3.738a1.251,1.251,0,0,1,.113-.537c.182-.231.369-.458.545-.693a.348.348,0,0,1,.315-.146c.9,0,1.8.008,2.693,0,.214,0,.279.073.271.278-.014.32-.009.64,0,.96.01.517.176.676.693.679-.061.071-.143.119-.14.24q.016.518,0,1.036C276.432,108.412,276.514,108.459,276.575,108.53Z" transform="translate(-245.037 -94.697)" fill="#7e67ef"/>
      <path id="Trazado_13065" data-name="Trazado 13065" d="M211.511,212.47c.29-.056.433-.017.495.354a3.149,3.149,0,0,0,6.247-.144c.025-.173.081-.229.251-.227.693.007,1.385.012,2.073,0,.227,0,.259.089.258.283-.008.976-.006,1.95,0,2.925,0,.849.568,1.176,1.3.752a2.052,2.052,0,1,1-.01,3.493c-.711-.412-1.286-.083-1.286.736,0,.975-.009,1.949,0,2.924,0,.244-.067.312-.31.308-.962-.013-1.925-.007-2.888,0-.865,0-1.192.573-.764,1.327a2.053,2.053,0,1,1-3.808.927,2.185,2.185,0,0,1,.335-1.005.779.779,0,0,0-.71-1.249c-.4-.007-.792-.009-1.187-.013a.542.542,0,0,1-.116-.416c-.006-.74,0-1.479,0-2.22a.792.792,0,0,1,.118-.458,3.2,3.2,0,0,0,.891-3.749,3.815,3.815,0,0,0-.9-1.2.755.755,0,0,1-.11-.458q0-1.217,0-2.434A.586.586,0,0,1,211.511,212.47Z" transform="translate(-190.475 -191.426)" fill="#ff7300"/>
      <path id="Trazado_13066" data-name="Trazado 13066" d="M193.495,212.515l-.009,3.344a3.415,3.415,0,0,0-1.914-.682c-.165,0-.172-.093-.172-.214V212.71c0-.16.056-.214.215-.211C192.24,212.509,192.868,212.51,193.495,212.515Z" transform="translate(-172.459 -191.47)" fill="#ff7300"/>
      <path id="Trazado_13067" data-name="Trazado 13067" d="M193.467,296.45v3.093c-.616,0-1.231,0-1.847.016-.2,0-.254-.058-.251-.251.01-.64.007-1.281,0-1.922,0-.163.039-.253.222-.254A3.264,3.264,0,0,0,193.467,296.45Z" transform="translate(-172.431 -267.114)" fill="#ff7300"/>
      <path id="Trazado_13068" data-name="Trazado 13068" d="M198.433,12.46a5.241,5.241,0,0,1,4.29,3.1,5.486,5.486,0,0,1-3.846,7.7,2.85,2.85,0,0,1-.3.026,1.032,1.032,0,0,1-.785-.1,5.986,5.986,0,0,1-2.972-4.357c-.017-.106-.053-.222.059-.306.185-.044.257.1.354.21.495.55.934,1.149,1.441,1.688.428.457.6.462,1.025-.007q1.277-1.412,2.531-2.847c.282-.326.586-.633.854-.972.216-.275.238-.5.048-.693a.467.467,0,0,0-.715.069c-.511.533-.99,1.1-1.479,1.653s-.963,1.089-1.451,1.629c-.24.266-.368.269-.575.015-.669-.822-1.385-1.6-2.032-2.444a3.932,3.932,0,0,1,.525-1.707,6.074,6.074,0,0,1,2.4-2.529A.76.76,0,0,1,198.433,12.46Z" transform="translate(-175.527 -11.203)" fill="#00ffe0"/>
      <path id="Trazado_13069" data-name="Trazado 13069" d="M41.79,42.618A9.032,9.032,0,0,0,39.019,44.4a8.584,8.584,0,0,0-2.474,4.364c-.1.453-.162.916-.218,1.377a.707.707,0,0,0,.053.536,2.206,2.206,0,0,0,.351,2.658,1.013,1.013,0,0,1,.1.149c.278.447.412.963.684,1.418a9.358,9.358,0,0,0,1.424,1.862,2.12,2.12,0,0,1,.42.5c.007.333,0,.666.026,1,.023.3-.106.291-.329.224A7.963,7.963,0,0,1,33.8,53.854a8.085,8.085,0,0,1,6.363-11.191,7.743,7.743,0,0,1,1.623-.045Z" transform="translate(-29.862 -38.379)" fill="#e0d227"/>
      <path id="Trazado_13070" data-name="Trazado 13070" d="M175.29,12.053a2.476,2.476,0,0,0-1.362.744,5.914,5.914,0,0,0-2.137,3.628c-.818.239-.891.495-.318,1.153.141.163.332.3.329.55a1.906,1.906,0,0,0,.151,1.089A5.932,5.932,0,0,0,174.7,22.7a1.319,1.319,0,0,0,.738.18,5.131,5.131,0,0,1-3.325-.522,5.48,5.48,0,0,1,1.747-10.315A3.844,3.844,0,0,1,175.29,12.053Z" transform="translate(-152.384 -10.796)" fill="#21d8be"/>
      <path id="Trazado_13071" data-name="Trazado 13071" d="M99.523,245.037a.6.6,0,0,0-.62-.422c-.146,0-.3-.015-.438-.023a.535.535,0,0,1-.116-.343c-.009-.594-.012-1.182,0-1.772,0-.21.048-.378.332-.377,1.526.01,3.053,0,4.579.006a.322.322,0,0,1,.106.028c.111.056.093.164.1.257v1.915c0,.246-.111.318-.338.314-.478-.01-.957,0-1.436,0a.609.609,0,0,0-.657.422.258.258,0,0,1-.278.237,7.487,7.487,0,0,1-.954,0A.264.264,0,0,1,99.523,245.037Z" transform="translate(-88.609 -218.142)" fill="#a5e6ef"/>
      <path id="Trazado_13072" data-name="Trazado 13072" d="M256.6,113.61q0,2.384.008,4.768c-.528.007-1.056.01-1.583.024-.177,0-.235-.065-.234-.237q.007-1.512,0-3.025a.287.287,0,0,1,.165-.3A7.524,7.524,0,0,0,256.6,113.61Z" transform="translate(-229.574 -102.367)" fill="#6252ce"/>
      <path id="Trazado_13073" data-name="Trazado 13073" d="M107.432,157.759a10.546,10.546,0,0,1,1.323-.036c.14-.007.158.069.158.183,0,1.466,0,2.93,0,4.4,0,.256-.16.184-.3.183-.131-.074-.282-.032-.423-.089-.751-.308-.8-.371-.8-1.187v-3.091A.7.7,0,0,1,107.432,157.759Z" transform="translate(-96.763 -142.112)" fill="#fff300"/>
      <path id="Trazado_13074" data-name="Trazado 13074" d="M86.952,241.776c-1.5,0-3.006.013-4.51,0-.3,0-.41.071-.4.388.023.693.007,1.38.007,2.07-.553.008-1.105.014-1.658.024-.241,0-.275-.139-.272-.336.006-.6.016-1.206,0-1.808-.01-.307.092-.408.4-.406,1.525.012,3.051,0,4.576,0h1.513C86.722,241.716,86.853,241.664,86.952,241.776Z" transform="translate(-72.195 -217.784)" fill="#84cbd1"/>
      <path id="Trazado_13075" data-name="Trazado 13075" d="M103.578,271.78c.069.063.118.145.239.142.343-.01.693-.01,1.031,0,.121,0,.17-.078.239-.142.008.522.163.679.681.688.636.012.636.012.636.641,0,.515,0,.517-.525.515q-1.457,0-2.911-.014a1.4,1.4,0,0,1-.076-.984c.019-.158.168-.145.284-.167A.579.579,0,0,0,103.578,271.78Z" transform="translate(-92.664 -244.885)" fill="#a5e6ef"/>
      <path id="Trazado_13076" data-name="Trazado 13076" d="M72.917,156.425a8.373,8.373,0,0,1-2.492-3.569,1.1,1.1,0,0,1-.036-.216,3.437,3.437,0,0,0,2.276.507c.159-.009.28,0,.276.221C72.924,154.387,72.924,155.406,72.917,156.425Z" transform="translate(-63.424 -137.535)" fill="#fff300"/>
      <path id="Trazado_13077" data-name="Trazado 13077" d="M134,125.827a2.349,2.349,0,0,1,.061-.7,1.106,1.106,0,0,1,1.153-.737,1.089,1.089,0,0,1,.952,1.021,1.059,1.059,0,0,1-.832,1.113,6.192,6.192,0,0,1-1.181.046c-.142.007-.155-.083-.153-.192Z" transform="translate(-120.738 -112.072)" fill="#fff300"/>
      <path id="Trazado_13078" data-name="Trazado 13078" d="M76.371,125.929c.014.68.014.681-.658.68a2.543,2.543,0,0,1-.693-.051,1.1,1.1,0,0,1-.8-1.18,1.121,1.121,0,0,1,1.1-.958,1.089,1.089,0,0,1,1.051.955A5.172,5.172,0,0,1,76.371,125.929Z" transform="translate(-66.871 -112.108)" fill="#fff300"/>
      <path id="Trazado_13079" data-name="Trazado 13079" d="M102.7,302.639a8.327,8.327,0,0,1-1.979.017c-.355-.027-.618-.7-.433-.99.058-.094.15-.067.232-.067.792,0,1.574,0,2.362-.009.2,0,.27.061.244.252-.022.166.051.346-.073.495a.314.314,0,0,1-.048-.054c-.1-.145.024-.422-.2-.475a2.27,2.27,0,0,0-.983,0c-.19.04-.139.234-.133.374a.312.312,0,0,0,.309.338C102.236,302.546,102.494,302.45,102.7,302.639Z" transform="translate(-90.31 -271.745)" fill="#84cbd1"/>
      <path id="Trazado_13080" data-name="Trazado 13080" d="M92.6,278.65a.309.309,0,0,0-.215.357c.02.263.006.529.007.792-.344,0-.693,0-1.033.017-.166.007-.23-.032-.239-.219-.047-.941-.053-.94.891-.941C92.211,278.658,92.408,278.653,92.6,278.65Z" transform="translate(-82.093 -251.075)" fill="#84cbd1"/>
      <path id="Trazado_13081" data-name="Trazado 13081" d="M134.828,212.39c-.2.548-.39,1.1-.6,1.644-.1.261-.344.118-.52.129-.213.014-.12-.177-.121-.275-.006-.4-.141-.907.054-1.147.21-.258.735-.26,1.123-.373A.361.361,0,0,1,134.828,212.39Z" transform="translate(-120.322 -191.352)" fill="#fff300"/>
      <path id="Trazado_13082" data-name="Trazado 13082" d="M83.45,212.23c.4.107.731.2,1.063.277.169.04.2.139.2.3-.009.332,0,.664,0,1,0,.1.053.263-.125.242s-.4.143-.512-.129c-.019-.046-.039-.091-.055-.137Z" transform="translate(-75.192 -191.228)" fill="#e0d227"/>
      <path id="Trazado_13083" data-name="Trazado 13083" d="M114.858,303.273c-.245,0-.495-.007-.735-.013-.344-.007-.38-.1-.4-.615-.015-.329.141-.368.4-.347.135.012.27,0,.4,0,.684,0,.684,0,.693.672A.384.384,0,0,1,114.858,303.273Z" transform="translate(-102.467 -272.379)" fill="#a5e6ef"/>
      <path id="Trazado_13084" data-name="Trazado 13084" d="M111.04,217.411c.807-.076.807-.076.807.723,0,.584,0,.584-.736.538a2.431,2.431,0,0,1-.449-1.064C110.573,217.238,110.887,217.435,111.04,217.411Z" transform="translate(-99.696 -195.868)" fill="#fff300"/>
      <path id="Trazado_13085" data-name="Trazado 13085" d="M108.061,217.244l-.337.041c.14.418.273.819.408,1.221-.792.052-.792.052-.792-.707C107.342,217.141,107.342,217.141,108.061,217.244Z" transform="translate(-96.718 -195.701)" fill="#e0d227"/>
      <path id="Trazado_13086" data-name="Trazado 13086" d="M107.266,158.12c0,1.241.018,2.482,0,3.723a.569.569,0,0,0,.372.594c.275.131.545.272.817.41a.383.383,0,0,1-.069.024c-1.143.132-1.168.111-1.168-1.006V158.47C107.219,158.355,107.166,158.225,107.266,158.12Z" transform="translate(-96.596 -142.473)" fill="#fff300"/>
      <path id="Trazado_13087" data-name="Trazado 13087" d="M188.913,47.793c-.19-.237-.376-.477-.572-.708s-.315-.445-.162-.727a.594.594,0,0,1,.723-.268c.693.684,1.264,1.476,1.909,2.2.115.128.223.261.352.415l2.243-2.527c.311-.35.617-.706.935-1.049a.555.555,0,1,1,.822.737q-1.76,1.995-3.532,3.981a.561.561,0,0,1-.966-.011C190.077,49.16,189.5,48.476,188.913,47.793Z" transform="translate(-169.494 -40.461)" fill="#603ce6"/>
    </g>
  </g>
</svg>
