<svg xmlns="http://www.w3.org/2000/svg" width="59.66" height="54.341" viewBox="0 0 59.66 54.341">
  <path id="Trazado_2373" data-name="Trazado 2373" d="M1094.883,2999.614a4.121,4.121,0,0,0-4.145-4.15h-22.665a4.215,4.215,0,0,0-4.253,4.15v25.271l2.974-2.687c.139-.126.294-.241.406-.344,1.357-1.251,1.705-1.452,3.476-1.416.242.005.529.007.88.007h19.182a4.149,4.149,0,0,0,4.145-4.183Zm2.959,0v16.649a7.111,7.111,0,0,1-7.1,7.14h-19.182c-.375,0-.684,0-.943-.008s-.575-.006-.693.007a9.006,9.006,0,0,0-.72.63c-.115.106-.247.224-.39.352l-5.426,4.948a1.515,1.515,0,0,1-2.522-1.093v-15.681h-15.494a4.237,4.237,0,0,0-4.228,4.2v16.649a4.173,4.173,0,0,0,4.228,4.127h21.426a1.476,1.476,0,0,1,.987.419l4.422,4.076v-14.058a1.479,1.479,0,1,1,2.959,0v17.409a1.461,1.461,0,0,1-.872,1.348,1.421,1.421,0,0,1-.585.115,1.5,1.5,0,0,1-1-.4l-6.486-5.952h-20.853a7.134,7.134,0,0,1-7.186-7.086v-16.649a7.2,7.2,0,0,1,7.186-7.163h15.494v-9.984a7.175,7.175,0,0,1,7.211-7.108h22.665A7.083,7.083,0,0,1,1097.842,2999.614ZM1054.4,3023.24a1.479,1.479,0,0,0,0,2.959h.125a1.479,1.479,0,0,0,0-2.959Zm-5.139,0a1.479,1.479,0,0,0,0,2.959h.123a1.479,1.479,0,1,0,0-2.959Zm29.814-10.3a1.452,1.452,0,0,0-1.447,1.478v.011a1.448,1.448,0,0,0,1.447,1.475,1.481,1.481,0,0,0,0-2.963Zm4.755-7.62c0,1.808-1.315,2.909-2.276,3.713-.365.305-1.041.864-1.039,1.07a1.458,1.458,0,0,1-1.467,1.471h-.014a1.46,1.46,0,0,1-1.478-1.444c-.014-1.6,1.156-2.562,2.1-3.349.737-.62,1.22-1.055,1.22-1.455a1.463,1.463,0,0,0-2.927,0,1.479,1.479,0,1,1-2.958,0,4.422,4.422,0,0,1,8.844-.005Z" transform="translate(-1038.182 -2992.506)" fill="#36c"/>
</svg>
