<svg id="Componente_118_43" data-name="Componente 118 – 43" xmlns="http://www.w3.org/2000/svg" width="9.141" height="11" viewBox="0 0 9.141 11">
  <path id="Trazado_15108" data-name="Trazado 15108" d="M8.569,10.424h-8a.581.581,0,0,0-.571.59.587.587,0,0,0,.571.611h8a.581.581,0,0,0,.571-.59A.6.6,0,0,0,8.569,10.424ZM7.2,4.939,5.142,7.2V1.217A.572.572,0,1,0,4,1.215V7.2L1.939,4.939a.557.557,0,0,0-.807-.026.6.6,0,0,0-.025.833L4.154,9.088a.574.574,0,0,0,.832,0L8.033,5.746a.6.6,0,0,0-.025-.833.54.54,0,0,0-.808.026Z" transform="translate(0 -0.625)" fill="#1d98d1"/>
</svg>
