<svg xmlns="http://www.w3.org/2000/svg" width="37.091" height="40" viewBox="0 0 37.091 40">
  <path id="Trazado_13080" data-name="Trazado 13080" d="M30-25a5,5,0,0,0,5-5,5,5,0,0,0-5-5,5,5,0,0,0-5,5A5,5,0,0,0,30-25Zm0-7.5A2.5,2.5,0,0,1,32.5-30,2.5,2.5,0,0,1,30-27.5,2.5,2.5,0,0,1,27.5-30,2.505,2.505,0,0,1,30-32.5ZM39.492-8.187,36.439-18.875A4.991,4.991,0,0,0,31.633-22.5H26.121a6.281,6.281,0,0,1,.129,1.25A6.584,6.584,0,0,1,26.125-20h5.512a2.5,2.5,0,0,1,2.4,1.813L37.094-7.5H28.75V-5H32.5V3.75a1.25,1.25,0,0,0,2.5,0V-5h2.092A2.5,2.5,0,0,0,39.492-8.187ZM5-17.5A2.5,2.5,0,0,1,7.5-20h6.377a6.46,6.46,0,0,1-.127-1.25,6.584,6.584,0,0,1,.125-1.25H7.5a5,5,0,0,0-5,5V-10A2.5,2.5,0,0,0,5-7.5V3.75a1.25,1.25,0,0,0,2.5,0V-7.5h3.75V-10H5v-7.5ZM10-25a5,5,0,0,0,5-5,5,5,0,0,0-5-5,5,5,0,0,0-5,5,5,5,0,0,0,5,5Zm0-7.5A2.5,2.5,0,0,1,12.5-30,2.505,2.505,0,0,1,10-27.5,2.505,2.505,0,0,1,7.5-30,2.505,2.505,0,0,1,10-32.5ZM20-16.25a4.373,4.373,0,0,0,4.375-4.375A4.416,4.416,0,0,0,20-25a4.413,4.413,0,0,0-4.375,4.375A4.368,4.368,0,0,0,20-16.25Zm0-6.25a1.877,1.877,0,0,1,1.875,1.875A1.877,1.877,0,0,1,20-18.75a1.879,1.879,0,0,1-1.875-1.875A1.881,1.881,0,0,1,20-22.5Zm2.5,8.75h-5A3.75,3.75,0,0,0,13.75-10v5a2.5,2.5,0,0,0,2.5,2.5v5A2.5,2.5,0,0,0,18.75,5h2.5a2.5,2.5,0,0,0,2.5-2.5v-5A2.5,2.5,0,0,0,26.25-5v-5A3.751,3.751,0,0,0,22.5-13.75ZM23.75-5h-2.5V2.5h-2.5V-5h-2.5v-5a1.251,1.251,0,0,1,1.25-1.25h5A1.251,1.251,0,0,1,23.75-10Z" transform="translate(-2.5 35)"/>
</svg>
