<svg xmlns="http://www.w3.org/2000/svg" width="5151.304" height="1364" viewBox="0 0 5151.304 1364">
  <path id="Trazado_12942" data-name="Trazado 12942" d="M5427.264,704.274a11.77,11.77,0,0,0-5.945-1.641h-26.365c-40.366,0-77.742,31.394-111.141,93.277a11.059,11.059,0,0,0-1.135,3.026c-19.36,88.646-96.812,213.465-229.656,370.337-137.689,140.68-278.773,212.042-419.31,212.042h-4.592c-69.869,0-125.8-19.727-166.138-58.633a11.088,11.088,0,0,0-5.613-2.991c-13.858-3.026-56.374-44.014-151.766-358.741-42.7-147.064-128.249-221.634-254.236-221.634h-18.339c-109.36,0-214.2,58.855-311.96,175.432-53.454,70.342-91.525,119.168-118.546,152.824,26.4-110.233,50.287-196.325,71.216-256.6a12.391,12.391,0,0,0,.622-3.83V769.327a12.166,12.166,0,0,0-.84-4.411c-.913-2.226-2.477-4.194-3.609-6.347-7.33-20.784-23.7-39.017-49.375-54.3a11.753,11.753,0,0,0-5.941-1.641h-26.4c-40.367,0-77.706,31.394-111.144,93.277a11.1,11.1,0,0,0-1.093,3.026c-19.4,88.646-96.814,213.465-229.694,370.337-137.654,140.68-278.737,212.042-419.274,212.042H2822.4c-69.866,0-125.8-19.727-166.136-58.633a11.252,11.252,0,0,0-5.614-2.991c-13.856-3.026-56.378-44.014-151.8-358.741-42.662-147.064-128.211-221.634-254.234-221.634h-18.3c-109.356,0-214.192,58.855-311.956,175.432-53.456,70.342-91.526,119.168-118.585,152.824q28.666-119.458,53.13-200.3c11.632-22.061,20.9-43.247,27.383-63.447a13.05,13.05,0,0,0,.55-3.539c0-38.835-16.884-65.345-49.483-78.4a179.985,179.985,0,0,0-26.509-13.783,11.646,11.646,0,0,0-4.45-.876c-28.773,0-56.373,15.461-82.155,45.727-31.034,28.844-72.456,78.291-129.342,163.215-241.105,261.491-469.669,394.078-679.268,394.078-67.057,0-131.638-11.343-191.441-33.44C577,1217.881,510.3,1134.049,510.3,1020.386V988.262c0-117.417,50.029-240.23,98.016-345.688,47.806-105.017,105.42-205.26,159.717-307.106,14.295-26.838,28.771-57.506,19.655-86.53-11.3-35.954-56.594-52.292-93.094-42.957-36.538,9.409-65.091,37.632-88.395,67.314-62.643,79.786-99.948,175.944-140.567,268.93-40,91.563-84.09,182-112.093,278.227-27.933,96.012-32.932,191.222-5.654,288.218a465.01,465.01,0,0,0,31.033,81.026c39.673,79.711,103.341,144.217,177.875,192.059,137.658,63.887,262.73,96.231,371.722,96.231,172.226,0,363.919-76.723,570.385-228.562,28.005-23.337,54.407-46.2,79.453-68.591q-36.1,136.415-71.942,292.047a13.117,13.117,0,0,0-.071,4.776c13.817,74.169,54.99,89.741,87.111,89.741h9.153c23.375,0,49.664-14.988,81.792-47.369,186.918-265.9,303.9-426.02,348.276-476.559,70.708-93.57,138.93-140.974,202.782-140.974l20.713-.073c13.674,1.277,26.365,8.023,38.76,20.749,8.718,15.389,36.355,87.333,117.6,337.41,69.578,188.377,204.385,283.914,400.713,283.914,66.729,0,156.691-19.142,265.718-56.374,70.2-12.542,159.68-70.924,273.3-178.5-13.053,52.73-26.106,106.808-39.088,163.255a12.336,12.336,0,0,0-.109,4.776c13.82,74.169,54.987,89.741,87.113,89.741h9.188c23.338,0,49.63-14.988,81.755-47.369,186.921-265.9,303.9-426.02,348.278-476.559C3910.1,949.9,3978.329,902.5,4042.181,902.5l20.711-.073c13.674,1.277,26.365,8.023,38.764,20.749,8.716,15.389,36.393,87.333,117.636,337.41C4288.83,1448.959,4423.64,1544.5,4619.97,1544.5c66.727,0,156.722-19.142,265.714-56.374,75.666-13.528,173.65-80.185,300.214-204.422,158.7-180.9,257.882-345.286,294.856-488.557a12.981,12.981,0,0,0,.369-2.88V784.2c0-31.76-18.125-58.672-53.859-79.931" transform="translate(-329.819 -203.397)" fill="#00ffe0"/>
</svg>
