<svg id="_003-hacer-clic" data-name="003-hacer-clic" xmlns="http://www.w3.org/2000/svg" width="40.271" height="57.533" viewBox="0 0 40.271 57.533">
  <g id="Page-1_17_" transform="translate(0 0)">
    <g id="_x30_18---Hand-Click">
      <path id="Shape_42_" d="M82.623,36.93v7.224A14.4,14.4,0,0,0,97,58.535h6.711A14.4,14.4,0,0,0,118.1,44.154V31.211a4.3,4.3,0,0,0-6.777-3.533,4.3,4.3,0,0,0-3.617-3.594,15.819,15.819,0,1,0-21.751,6.559,7.68,7.68,0,0,0-3.327,6.286Zm26.844-8.6v8.149a.959.959,0,0,0,1.917,0V31.211a2.4,2.4,0,1,1,4.794,0V44.154a12.478,12.478,0,0,1-12.463,12.463H97A12.478,12.478,0,0,1,84.54,44.154V36.93a5.767,5.767,0,0,1,3.73-5.377l.073-.027h.006l.985-.37v12.04a.959.959,0,0,0,1.917,0V16.83a2.4,2.4,0,0,1,4.794,0V33.608a.959.959,0,0,0,1.917,0V27.376a2.4,2.4,0,0,1,4.794,0v7.19a.959.959,0,1,0,1.917,0V28.335a2.4,2.4,0,0,1,4.794,0Zm-11.5-4.6v-6.9a4.314,4.314,0,0,0-8.629,0v6.9a8.149,8.149,0,1,1,8.629,0Zm-18.216-6.9A13.9,13.9,0,1,1,105.3,24.411a4.313,4.313,0,0,0-1.219.825,4.3,4.3,0,0,0-2.642-2.02A10.074,10.074,0,1,0,89.334,25.92v3.187l-1.236.462a13.845,13.845,0,0,1-8.352-12.74Z" transform="translate(-77.825 -1.001)"/>
    </g>
  </g>
</svg>
