<svg id="Capa_2" data-name="Capa 2" xmlns="http://www.w3.org/2000/svg" width="14.7" height="15.778" viewBox="0 0 14.7 15.778">
  <g id="Capa_1" data-name="Capa 1" transform="translate(0.015 -0.072)">
    <path id="Trazado_1" data-name="Trazado 1" d="M8,1.18V.66a.67.67,0,0,0-1.33,0v.52A7.35,7.35,0,1,0,8,1.18ZM7.35,14.51a6,6,0,1,1,6-6,6,6,0,0,1-6,6Z" fill="#1D98D1"/>
    <path id="Trazado_2" data-name="Trazado 2" d="M8,9V4.83a.67.67,0,1,0-1.33,0V9.31a.67.67,0,0,0,.2.47L9.12,12a.665.665,0,1,0,.94-.94Z" fill="#1D98D1"/>
  </g>
</svg>
