<svg id="Grupo_1235" data-name="Grupo 1235" xmlns="http://www.w3.org/2000/svg" width="33.967" height="54.342" viewBox="0 0 33.967 54.342">
  <path id="Trazado_2380" data-name="Trazado 2380" d="M892.452,3016.961l1.723-1.148v7.215a1.062,1.062,0,1,0,2.123,0V2997.98a2.123,2.123,0,0,1,4.245,0v20.8a1.061,1.061,0,1,0,2.123,0v-7.429a2.123,2.123,0,0,1,4.245,0v7.429a1.062,1.062,0,0,0,2.123,0v-5.307a2.122,2.122,0,1,1,4.245,0v5.307a1.062,1.062,0,0,0,2.123,0V3015.6a2.123,2.123,0,1,1,4.245,0v8.268a24.209,24.209,0,0,1-4.067,13.431,1.055,1.055,0,0,0-.178.588v3.821H898.421v-3.821a1.064,1.064,0,0,0-.311-.751,28.93,28.93,0,0,1-8.036-14.153A5.7,5.7,0,0,1,892.452,3016.961Zm-4.444,6.508a30.972,30.972,0,0,0,8.256,14.823l.034.035v4.443a1.062,1.062,0,0,0,1.061,1.062h19.105a1.06,1.06,0,0,0,1.06-1.062V3038.2a26.312,26.312,0,0,0,4.246-14.336V3015.6a48.955,48.955,0,0,1-10.614-6.368,4.241,4.241,0,0,1-6.367-2.123,4.218,4.218,0,0,0-2.124.568v-9.7a4.246,4.246,0,0,0-8.491,0v15.281l-2.9,1.934A7.832,7.832,0,0,0,888.008,3023.469Z" transform="translate(-887.803 -2989.489)" fill="#36c"/>
  <path id="Trazado_2381" data-name="Trazado 2381" d="M890.416,3000.189a1.06,1.06,0,0,0,1.062-1.061,6.368,6.368,0,0,1,12.736,0,1.061,1.061,0,0,0,2.122,0,8.491,8.491,0,0,0-16.981,0A1.059,1.059,0,0,0,890.416,3000.189Z" transform="translate(-887.229 -2990.637)" fill="#36c"/>
</svg>
