<svg xmlns="http://www.w3.org/2000/svg" width="68.568" height="51.33" viewBox="0 0 68.568 51.33">
  <g id="Grupo_21783" data-name="Grupo 21783" transform="translate(-467.821 -482.635)">
    <path id="Trazado_15682" data-name="Trazado 15682" d="M532.57,482.635q-30.477,0-60.955,0c-2.981,0-3.792.8-3.792,3.759q-.005,21.869,0,43.738c0,3.048.8,3.827,3.9,3.828l30.3,0h30.649c2.827,0,3.7-.853,3.7-3.677q.013-21.955.008-43.91C536.387,483.454,535.539,482.635,532.57,482.635Zm-52.523,49.428c-2.928,0-5.857-.029-8.784.016-1.081.016-1.482-.345-1.58-1.474a6.7,6.7,0,0,1,2.181-5.908c4.828-4.666,9.439-9.557,14.1-14.39.658-.682,1.012-.961,1.847-.106,6.942,7.1,13.945,14.148,20.926,21.213.114.116.2.262.484.648Zm52.777.023c-3.27-.069-6.543-.023-9.814-.023-3.215,0-6.429-.026-9.643.017a2.6,2.6,0,0,1-2.115-.827c-2.868-2.974-5.762-5.927-8.721-8.811-.783-.763-.694-1.144.019-1.864q6.722-6.792,13.347-13.68c.669-.695,1.042-.749,1.737-.029q8.066,8.368,16.21,16.66a2.12,2.12,0,0,1,.648,1.675c-.039,1.721-.072,3.446,0,5.165C534.55,531.625,534.126,532.114,532.824,532.087Zm1.655-11.825a2.3,2.3,0,0,1-.019.4c-2.749-2.577-5.668-5.222-8.48-7.975-2.666-2.61-5.262-5.295-7.8-8.027-1.047-1.127-1.756-1.075-2.8.011-4.646,4.852-9.383,9.615-14.023,14.472-.851.891-1.277.833-2.094-.014-3.626-3.761-7.365-7.414-10.977-11.188-1.076-1.125-1.729-1.026-2.756.044-5.127,5.343-10.322,10.62-15.5,15.929-.578-.32-.3-.833-.3-1.223-.018-12.058,0-24.117-.041-36.174-.005-1.445.331-2.017,1.91-2.013q30.488.071,60.977.007c1.369,0,1.935.306,1.928,1.816C534.452,497.638,534.48,508.95,534.479,520.262Z" fill="#fff"/>
    <path id="Trazado_15683" data-name="Trazado 15683" d="M538.962,506.822a6.28,6.28,0,1,0-.229,12.555,6.279,6.279,0,0,0,.229-12.555Zm-.1,10.7a4.422,4.422,0,1,1,4.293-4.446A4.435,4.435,0,0,1,538.866,517.521Z" transform="translate(-42.344 -15.846)" fill="#fff"/>
  </g>
</svg>
