<svg id="_002-lmpara" data-name="002-lmpara" xmlns="http://www.w3.org/2000/svg" width="55.948" height="55.948" viewBox="0 0 55.948 55.948">
  <g id="Grupo_1621" data-name="Grupo 1621" transform="translate(11.656 11.656)">
    <path id="Trazado_2583" data-name="Trazado 2583" d="M24.815,49.292H17.821c-1.632,0-3.5-1.4-3.5-4.2V40.2a8.1,8.1,0,0,0-3.031-6.061A16.114,16.114,0,0,1,5,21.085,16.59,16.59,0,0,1,21.085,5,16.384,16.384,0,0,1,32.741,9.662a16.6,16.6,0,0,1,4.9,11.656,15.678,15.678,0,0,1-6.061,12.588,8.511,8.511,0,0,0-3.264,6.527V45.8A3.585,3.585,0,0,1,24.815,49.292Zm-3.5-41.961A14.3,14.3,0,0,0,7.331,21.085a13.7,13.7,0,0,0,5.362,11.19A10.159,10.159,0,0,1,16.656,40.2v4.9c0,.466,0,1.865,1.166,1.865h6.993A1.1,1.1,0,0,0,25.98,45.8V40.434a11.328,11.328,0,0,1,4.2-8.392,13.593,13.593,0,0,0,5.129-10.723,13.935,13.935,0,0,0-4.2-10.024,13.741,13.741,0,0,0-9.791-3.963Z" transform="translate(-5 -5)"/>
  </g>
  <g id="Grupo_1622" data-name="Grupo 1622" transform="translate(20.98 46.623)">
    <path id="Trazado_2584" data-name="Trazado 2584" d="M21.821,22.331H10.166a1.166,1.166,0,1,1,0-2.331H21.821a1.166,1.166,0,1,1,0,2.331Z" transform="translate(-9 -20)"/>
  </g>
  <g id="Grupo_1623" data-name="Grupo 1623" transform="translate(26.808)">
    <path id="Trazado_2585" data-name="Trazado 2585" d="M12.666,6.993A1.1,1.1,0,0,1,11.5,5.828V1.166A1.1,1.1,0,0,1,12.666,0a1.1,1.1,0,0,1,1.166,1.166V5.828A1.1,1.1,0,0,1,12.666,6.993Z" transform="translate(-11.5)"/>
  </g>
  <g id="Grupo_1624" data-name="Grupo 1624" transform="translate(42.311 8.043)">
    <path id="Trazado_2586" data-name="Trazado 2586" d="M19.432,8.928A1.4,1.4,0,0,1,18.5,8.7a1.127,1.127,0,0,1,0-1.632L21.763,3.8A1.154,1.154,0,1,1,23.4,5.431L20.131,8.7A2.348,2.348,0,0,1,19.432,8.928Z" transform="translate(-18.15 -3.45)"/>
  </g>
  <g id="Grupo_1625" data-name="Grupo 1625" transform="translate(48.954 26.808)">
    <path id="Trazado_2587" data-name="Trazado 2587" d="M26.828,13.831H22.166A1.1,1.1,0,0,1,21,12.666,1.1,1.1,0,0,1,22.166,11.5h4.662a1.1,1.1,0,0,1,1.166,1.166A1.1,1.1,0,0,1,26.828,13.831Z" transform="translate(-21 -11.5)"/>
  </g>
  <g id="Grupo_1626" data-name="Grupo 1626" transform="translate(42.311 42.544)">
    <path id="Trazado_2588" data-name="Trazado 2588" d="M22.7,23.728a1.4,1.4,0,0,1-.932-.233L18.5,20.231A1.154,1.154,0,1,1,20.131,18.6L23.4,21.863a1.127,1.127,0,0,1,0,1.632C23.4,23.728,23.162,23.728,22.7,23.728Z" transform="translate(-18.15 -18.25)"/>
  </g>
  <g id="Grupo_1627" data-name="Grupo 1627" transform="translate(7.809 42.544)">
    <path id="Trazado_2589" data-name="Trazado 2589" d="M4.632,23.728A1.4,1.4,0,0,1,3.7,23.5a1.127,1.127,0,0,1,0-1.632L6.963,18.6A1.154,1.154,0,0,1,8.6,20.231L5.331,23.5A.856.856,0,0,1,4.632,23.728Z" transform="translate(-3.35 -18.25)"/>
  </g>
  <g id="Grupo_1628" data-name="Grupo 1628" transform="translate(0 26.808)">
    <path id="Trazado_2590" data-name="Trazado 2590" d="M5.828,13.831H1.166A1.1,1.1,0,0,1,0,12.666,1.1,1.1,0,0,1,1.166,11.5H5.828a1.1,1.1,0,0,1,1.166,1.166A1.1,1.1,0,0,1,5.828,13.831Z" transform="translate(0 -11.5)"/>
  </g>
  <g id="Grupo_1629" data-name="Grupo 1629" transform="translate(7.809 7.809)">
    <path id="Trazado_2591" data-name="Trazado 2591" d="M7.9,9.061a1.4,1.4,0,0,1-.932-.233L3.7,5.331A1.154,1.154,0,0,1,5.331,3.7L8.6,6.963A1.127,1.127,0,0,1,8.6,8.6c-.233.233-.466.466-.7.466Z" transform="translate(-3.35 -3.35)"/>
  </g>
  <g id="Grupo_1630" data-name="Grupo 1630" transform="translate(26.808 17.484)">
    <path id="Trazado_2592" data-name="Trazado 2592" d="M21.99,19.156a1.1,1.1,0,0,1-1.166-1.166,8.26,8.26,0,0,0-8.159-8.159A1.1,1.1,0,0,1,11.5,8.666,1.1,1.1,0,0,1,12.666,7.5a10.447,10.447,0,0,1,10.49,10.49A1.1,1.1,0,0,1,21.99,19.156Z" transform="translate(-11.5 -7.5)"/>
  </g>
</svg>
