<svg xmlns="http://www.w3.org/2000/svg" width="38" height="30.494" viewBox="0 0 38 30.494">
  <g id="Capa_2" data-name="Capa 2" transform="translate(0)">
    <g id="Capa_1" data-name="Capa 1" transform="translate(0)">
      <path id="Trazado_13037" data-name="Trazado 13037" d="M30.522,1.725V28.8a1.986,1.986,0,0,1-.388,1.034,1.907,1.907,0,0,1-1.553.665c-.516-.009-1.034,0-1.549,0h-25a1.994,1.994,0,0,1-1.642-.666A2.017,2.017,0,0,1,0,28.795V8.985c.147-.4.215-.449.627-.446a.656.656,0,0,1,.51.677c.009.188.006.377.006.565,0,6.067.01,12.134-.01,18.2,0,.983.367,1.352,1.344,1.348q12.783-.025,25.568,0c.97,0,1.345-.363,1.342-1.352q-.026-11.063-.01-22.128c0-.666,0-.666-.676-.666H1.822c-.678,0-.678,0-.679.692,0,.219,0,.437,0,.654-.019.462-.229.652-.7.636C.159,7.19.068,7,0,6.782V1.67A1.8,1.8,0,0,1,.5.541,1.781,1.781,0,0,1,1.729,0H28.793a1.793,1.793,0,0,1,1.334.645A1.853,1.853,0,0,1,30.522,1.725Z" transform="translate(0)"/>
      <path id="Trazado_13038" data-name="Trazado 13038" d="M27.012,15.819H13.188c-.428,0-.428,0-.428-.439V13.893a1.021,1.021,0,0,1,1.113-1.113H40c.882,0,1.248.366,1.248,1.248,0,.516,0,1.034,0,1.547,0,.175-.052.262-.239.246-.088-.008-.179,0-.268,0Z" transform="translate(-11.745 -11.764)" fill="#dadada"/>
      <path id="Trazado_13039" data-name="Trazado 13039" d="M26.311,26.471c-.487,0-.725-.159-.733-.493s.262-.518.747-.518c.089,0,.179,0,.267,0a.5.5,0,1,1-.014,1.009C26.486,26.476,26.4,26.471,26.311,26.471Z" transform="translate(-23.544 -23.434)" fill="#603ce6"/>
      <path id="Trazado_13040" data-name="Trazado 13040" d="M90.493,26.36a2.624,2.624,0,0,1-.3,0,.463.463,0,0,1-.461-.452.455.455,0,0,1,.374-.527,1.734,1.734,0,0,1,.735-.006.5.5,0,0,1,.4.55.47.47,0,0,1-.477.437c-.089.006-.178,0-.267,0Z" transform="translate(-82.599 -23.325)" fill="#603ce6"/>
      <path id="Trazado_13041" data-name="Trazado 13041" d="M58.421,26.445h-.239a.481.481,0,0,1-.51-.465.5.5,0,0,1,.477-.538,3.212,3.212,0,0,1,.5-.006.492.492,0,0,1,.522.519c-.006.3-.2.477-.545.49C58.559,26.448,58.492,26.445,58.421,26.445Z" transform="translate(-53.086 -23.407)" fill="#603ce6"/>
      <rect id="Rectángulo_13180" data-name="Rectángulo 13180" width="23.615" height="8.19" rx="1" transform="translate(3.372 6.556)" fill="#603ce6" opacity="0.5"/>
      <rect id="Rectángulo_13181" data-name="Rectángulo 13181" width="23.615" height="4.055" rx="1" transform="translate(3.372 23.89)" fill="#603ce6" opacity="0.5"/>
      <rect id="Rectángulo_13182" data-name="Rectángulo 13182" width="6.97" height="6.343" rx="1" transform="translate(3.372 16.177)" fill="#603ce6" opacity="0.5"/>
      <rect id="Rectángulo_13183" data-name="Rectángulo 13183" width="6.97" height="6.343" rx="1" transform="translate(11.589 16.177)" fill="#603ce6" opacity="0.5"/>
      <rect id="Rectángulo_13184" data-name="Rectángulo 13184" width="6.97" height="6.343" rx="1" transform="translate(19.938 16.177)" fill="#603ce6" opacity="0.5"/>
      <path id="Trazado_13042" data-name="Trazado 13042" d="M270.1,118.1a1.72,1.72,0,0,1-.565,1.272q-2.78,2.769-5.551,5.542-2.4,2.4-4.8,4.8a3.236,3.236,0,0,1-1.337.829c-1.415.456-2.824.928-4.231,1.407a1.049,1.049,0,0,1-1.18-.205,1.011,1.011,0,0,1-.19-1.15c.49-1.431.964-2.872,1.438-4.311a2.91,2.91,0,0,1,.729-1.178q5.219-5.195,10.434-10.4a1.688,1.688,0,0,1,2.544-.015c.728.716,1.445,1.442,2.168,2.162A1.676,1.676,0,0,1,270.1,118.1Z" transform="translate(-232.102 -105.042)"/>
      <path id="Trazado_13043" data-name="Trazado 13043" d="M301.144,151.564c-.038.041-.079.088-.124.133q-4.345,4.338-8.688,8.679c-.137.137-.211.111-.328-.012-.248-.263-.5-.527-.769-.764-.214-.188-.222-.3-.008-.515q3.254-3.219,6.487-6.46c.662-.661,1.334-1.312,1.981-1.988.219-.229.359-.282.582-.01s.491.5.739.749C301.068,151.427,301.136,151.469,301.144,151.564Z" transform="translate(-267.928 -138.481)" fill="#fff300"/>
      <path id="Trazado_13044" data-name="Trazado 13044" d="M316.3,184.987a1.371,1.371,0,0,1-.125-.1c-.318-.318-.626-.636-.954-.943-.159-.151-.025-.215.057-.3l2.417-2.412q3.093-3.087,6.181-6.177c.186-.187.293-.2.471,0,.254.285.534.549.81.813.107.1.129.184,0,.281a1.2,1.2,0,0,0-.091.09l-8.554,8.536C316.452,184.848,316.381,184.912,316.3,184.987Z" transform="translate(-290.09 -161.005)" fill="#e0d227"/>
      <path id="Trazado_13045" data-name="Trazado 13045" d="M414.707,127.922a.611.611,0,0,1,.538.188c.746.743,1.495,1.482,2.233,2.232a.58.58,0,0,1,0,.921c-.183.192-.378.375-.561.565-.095.1-.171.141-.289.022q-1.439-1.446-2.886-2.886c-.052-.051-.121-.107-.045-.186a4.759,4.759,0,0,1,.875-.827A.239.239,0,0,1,414.707,127.922Z" transform="translate(-380.772 -117.744)" fill="#00ffe0"/>
      <path id="Trazado_13046" data-name="Trazado 13046" d="M280.582,278.722a.267.267,0,0,1-.29-.087q-.8-.8-1.6-1.6c-.052-.052-.132-.107-.109-.184a8.038,8.038,0,0,1,.337-1.024c.073-.159.174.022.232.08.673.663,1.34,1.332,2.008,2,.112.113.226.225.336.339.06.062.092.13-.018.169C281.156,278.53,280.838,278.636,280.582,278.722Z" transform="translate(-256.428 -253.84)" fill="#a87766"/>
      <path id="Trazado_13047" data-name="Trazado 13047" d="M266.51,307.053c.18-.535.338-1,.492-1.471.05-.15.122-.115.2-.033.262.262.522.526.787.784.15.146.074.208-.079.257Z" transform="translate(-245.319 -281.189)" fill="#603ce6"/>
    </g>
  </g>
</svg>
