<svg id="Grupo_1234" data-name="Grupo 1234" xmlns="http://www.w3.org/2000/svg" width="54.264" height="54.342" viewBox="0 0 54.264 54.342">
  <g id="Grupo_1260" data-name="Grupo 1260" transform="translate(0)">
    <path id="Trazado_2375" data-name="Trazado 2375" d="M664.337,2841.48a1.558,1.558,0,0,1,1.789-1.261,17.848,17.848,0,0,1,14.543,14.542,1.553,1.553,0,0,1-1.272,1.792,2.313,2.313,0,0,1-.265.022,1.538,1.538,0,0,1-1.525-1.286,14.766,14.766,0,0,0-12.021-12.02A1.532,1.532,0,0,1,664.337,2841.48Z" transform="translate(-636.259 -2830.344)" fill="#36c"/>
    <path id="Trazado_2376" data-name="Trazado 2376" d="M693.2,2880.07c-.492.516-1,1.008-1.49,1.479a26.52,26.52,0,0,0-2.008,2.076c-.011.024-.033.035-.045.057a8.641,8.641,0,0,1-6.618,2.844c-.229,0-.481-.012-.722-.022a28,28,0,0,1-10.093-2.982,53.969,53.969,0,0,1-17.973-14.072,49.361,49.361,0,0,1-8.775-14.634,20.12,20.12,0,0,1-1.468-8.511,8.394,8.394,0,0,1,2.489-5.334l3.9-3.934.022-.021a5.615,5.615,0,0,1,3.9-1.689,5.421,5.421,0,0,1,3.841,1.689c.746.687,1.468,1.42,2.156,2.132.344.365.711.734,1.067,1.088l3.132,3.131a5.263,5.263,0,0,1,0,7.937c-.321.32-.642.653-.964.975-.849.86-1.721,1.753-2.661,2.613a23.239,23.239,0,0,0,3.1,4.887,39.345,39.345,0,0,0,9.439,8.6c.332.208.724.4,1.136.608.287.15.585.3.884.46l3.624-3.613a5.52,5.52,0,0,1,3.923-1.766,5.343,5.343,0,0,1,3.876,1.777l6.3,6.319a5.509,5.509,0,0,1,1.767,3.934A5.722,5.722,0,0,1,693.2,2880.07Z" transform="translate(-643.96 -2832.185)" fill="#36c"/>
    <path id="Trazado_2377" data-name="Trazado 2377" d="M689.116,2858.786a2.252,2.252,0,0,1-.263.024,1.539,1.539,0,0,1-1.526-1.285,26.245,26.245,0,0,0-21.4-21.4,1.547,1.547,0,0,1,.5-3.053,29.394,29.394,0,0,1,23.949,23.948A1.519,1.519,0,0,1,689.116,2858.786Z" transform="translate(-636.138 -2833.048)" fill="#36c"/>
  </g>
</svg>
