<svg xmlns="http://www.w3.org/2000/svg" width="51.112" height="54.341" viewBox="0 0 51.112 54.341">
  <path id="Trazado_2372" data-name="Trazado 2372" d="M603.6,2846.478v-2.088a19.088,19.088,0,0,0-4.978-13.1,17.167,17.167,0,0,0-12.74-5.48h-1.724a17.169,17.169,0,0,0-12.74,5.48,19.089,19.089,0,0,0-4.978,13.1v2.088a7.5,7.5,0,0,0-6.987,7.468v3.265a7.488,7.488,0,0,0,7.478,7.477h4.213a1.373,1.373,0,0,0,1.371-1.369v-15.493a1.375,1.375,0,0,0-1.371-1.369h-1.964v-2.066c0-9.03,6.439-15.835,14.968-15.835h1.724c8.539,0,14.967,6.806,14.967,15.835v2.066h-1.963a1.374,1.374,0,0,0-1.371,1.369v15.482a1.374,1.374,0,0,0,1.371,1.37h1.918c-.56,7.147-5.48,8.8-7.763,9.179a4.815,4.815,0,0,0-4.578-3.322h-3.425a4.811,4.811,0,0,0,0,9.623h3.436a4.818,4.818,0,0,0,4.635-3.539,12.937,12.937,0,0,0,4.646-1.587c2.478-1.449,5.412-4.406,5.8-10.365a7.487,7.487,0,0,0,7.021-7.467v-3.266A7.46,7.46,0,0,0,603.6,2846.478Z" transform="translate(-559.448 -2825.815)" fill="#36c"/>
</svg>
