<svg xmlns="http://www.w3.org/2000/svg" width="374.849" height="90.946" viewBox="0 0 374.849 90.946">
  <g id="Grupo_20244" data-name="Grupo 20244" transform="translate(-129.889 -188.07)">
    <path id="Trazado_2500" data-name="Trazado 2500" d="M202.611,258.761h-22.2l-6.226-6.23H169.3l-8.741-8.746H139.191a4.7,4.7,0,1,1,0-1.946h22.177l8.741,8.741h4.879l6.233,6.234H202l12.67-8.047H504.738v1.95H215.283Z" transform="translate(0 3.476)" fill="#603ce6"/>
    <g id="Grupo_1566" data-name="Grupo 1566" transform="translate(172.211 266.032)">
      <path id="Trazado_2501" data-name="Trazado 2501" d="M169.462,273.731V261.785h1.25v10.687h4.743v1.259Z" transform="translate(-169.462 -260.911)" fill="#603ce6"/>
      <path id="Trazado_2502" data-name="Trazado 2502" d="M187.214,273.546l-.243-1.275h-.059a3.478,3.478,0,0,1-1.2,1.139,3.343,3.343,0,0,1-1.5.3,2.526,2.526,0,0,1-1.879-.687,2.655,2.655,0,0,1-.681-1.952q0-2.714,3.906-2.845l1.368-.048v-.556a2.445,2.445,0,0,0-.409-1.557,1.584,1.584,0,0,0-1.3-.5,4.918,4.918,0,0,0-2.28.687l-.375-1.037a5.46,5.46,0,0,1,1.306-.564,5.094,5.094,0,0,1,1.423-.2,2.864,2.864,0,0,1,2.136.711,3.169,3.169,0,0,1,.7,2.279v6.112Zm-2.758-.955a2.34,2.34,0,0,0,1.791-.7,2.734,2.734,0,0,0,.65-1.944v-.81l-1.22.058a4.067,4.067,0,0,0-2.1.5,1.57,1.57,0,0,0-.644,1.386,1.481,1.481,0,0,0,.4,1.12A1.556,1.556,0,0,0,184.456,272.591Z" transform="translate(-168.615 -260.727)" fill="#603ce6"/>
      <path id="Trazado_2503" data-name="Trazado 2503" d="M199.421,264.679a2.876,2.876,0,0,1,2.467,1.205,7.062,7.062,0,0,1-.007,6.838,2.869,2.869,0,0,1-2.46,1.222,3.192,3.192,0,0,1-1.437-.323,2.8,2.8,0,0,1-1.093-.992H196.8l-.258,1.152h-.875V261.067h1.22v3.089q0,1.038-.058,1.863h.058A2.8,2.8,0,0,1,199.421,264.679Zm-.176,1.136a2.034,2.034,0,0,0-1.8.8,6.757,6.757,0,0,0,.015,5.384,2.056,2.056,0,0,0,1.816.813,1.829,1.829,0,0,0,1.677-.91,5.093,5.093,0,0,0,.552-2.618,4.9,4.9,0,0,0-.552-2.607A1.885,1.885,0,0,0,199.244,265.814Z" transform="translate(-167.641 -260.961)" fill="#603ce6"/>
      <path id="Trazado_2504" data-name="Trazado 2504" d="M216.919,269.062a5.3,5.3,0,0,1-.992,3.419,3.626,3.626,0,0,1-4.663.666,3.619,3.619,0,0,1-1.294-1.618,6.163,6.163,0,0,1-.457-2.467,5.3,5.3,0,0,1,.986-3.412,3.318,3.318,0,0,1,2.736-1.222,3.256,3.256,0,0,1,2.688,1.251A5.276,5.276,0,0,1,216.919,269.062Zm-6.141,0a4.6,4.6,0,0,0,.618,2.614,2.292,2.292,0,0,0,3.636,0,4.586,4.586,0,0,0,.621-2.618,4.511,4.511,0,0,0-.621-2.595,2.1,2.1,0,0,0-1.835-.887,2.063,2.063,0,0,0-1.809.874A4.568,4.568,0,0,0,210.778,269.062Z" transform="translate(-166.68 -260.728)" fill="#603ce6"/>
      <path id="Trazado_2505" data-name="Trazado 2505" d="M227.735,264.428a4.313,4.313,0,0,1,.963.1l-.169,1.259a3.721,3.721,0,0,0-.881-.123,2.07,2.07,0,0,0-1.674.883,3.441,3.441,0,0,0-.7,2.2v4.805h-1.22v-8.956h1.007l.139,1.659h.06a3.815,3.815,0,0,1,1.08-1.348A2.273,2.273,0,0,1,227.735,264.428Z" transform="translate(-165.669 -260.728)" fill="#603ce6"/>
      <path id="Trazado_2506" data-name="Trazado 2506" d="M240.421,273.546l-.243-1.275h-.058a3.489,3.489,0,0,1-1.2,1.139,3.343,3.343,0,0,1-1.5.3,2.526,2.526,0,0,1-1.879-.687,2.655,2.655,0,0,1-.681-1.952q0-2.714,3.906-2.845l1.368-.048v-.556a2.445,2.445,0,0,0-.409-1.557,1.584,1.584,0,0,0-1.3-.5,4.921,4.921,0,0,0-2.28.687l-.375-1.037a5.46,5.46,0,0,1,1.306-.564,5.094,5.094,0,0,1,1.423-.2,2.864,2.864,0,0,1,2.136.711,3.169,3.169,0,0,1,.7,2.279v6.112Zm-2.758-.955a2.338,2.338,0,0,0,1.791-.7,2.734,2.734,0,0,0,.651-1.944v-.81l-1.221.058a4.067,4.067,0,0,0-2.1.5,1.57,1.57,0,0,0-.644,1.386,1.481,1.481,0,0,0,.4,1.12A1.556,1.556,0,0,0,237.663,272.591Z" transform="translate(-164.919 -260.727)" fill="#603ce6"/>
      <path id="Trazado_2507" data-name="Trazado 2507" d="M251.55,272.716a3.717,3.717,0,0,0,.625-.053,3.774,3.774,0,0,0,.478-.111v1.037a2.056,2.056,0,0,1-.585.176,4,4,0,0,1-.7.07q-2.339,0-2.339-2.737V265.77H247.88v-.655l1.154-.564.516-1.911h.706v2.075h2.339v1.055h-2.339v5.27a1.949,1.949,0,0,0,.345,1.242A1.145,1.145,0,0,0,251.55,272.716Z" transform="translate(-164.014 -260.852)" fill="#603ce6"/>
      <path id="Trazado_2508" data-name="Trazado 2508" d="M266.454,269.062a5.3,5.3,0,0,1-.994,3.419,3.624,3.624,0,0,1-4.662.666,3.628,3.628,0,0,1-1.3-1.618,6.183,6.183,0,0,1-.456-2.467,5.29,5.29,0,0,1,.986-3.412,3.316,3.316,0,0,1,2.735-1.222,3.257,3.257,0,0,1,2.689,1.251A5.276,5.276,0,0,1,266.454,269.062Zm-6.142,0a4.6,4.6,0,0,0,.618,2.614,2.293,2.293,0,0,0,3.637,0,4.586,4.586,0,0,0,.621-2.618,4.511,4.511,0,0,0-.621-2.595,2.1,2.1,0,0,0-1.835-.887,2.063,2.063,0,0,0-1.81.874A4.568,4.568,0,0,0,260.312,269.062Z" transform="translate(-163.238 -260.728)" fill="#603ce6"/>
      <path id="Trazado_2509" data-name="Trazado 2509" d="M277.284,264.428a4.323,4.323,0,0,1,.964.1l-.17,1.259a3.729,3.729,0,0,0-.882-.123,2.069,2.069,0,0,0-1.673.883,3.434,3.434,0,0,0-.7,2.2v4.805h-1.221v-8.956h1.009l.139,1.659h.059a3.829,3.829,0,0,1,1.081-1.348A2.271,2.271,0,0,1,277.284,264.428Z" transform="translate(-162.227 -260.728)" fill="#603ce6"/>
      <path id="Trazado_2510" data-name="Trazado 2510" d="M284.878,262.37a.961.961,0,0,1,.206-.682.707.707,0,0,1,1.021,0,.943.943,0,0,1,.214.678.956.956,0,0,1-.214.682.672.672,0,0,1-.507.225.664.664,0,0,1-.514-.225A.975.975,0,0,1,284.878,262.37Zm1.324,11.382h-1.221V264.8H286.2Z" transform="translate(-161.444 -260.933)" fill="#603ce6"/>
      <path id="Trazado_2511" data-name="Trazado 2511" d="M301.156,269.062a5.3,5.3,0,0,1-.994,3.419,3.331,3.331,0,0,1-2.743,1.23,3.364,3.364,0,0,1-1.92-.564,3.617,3.617,0,0,1-1.293-1.618,6.164,6.164,0,0,1-.457-2.467,5.29,5.29,0,0,1,.986-3.412,3.316,3.316,0,0,1,2.735-1.222,3.257,3.257,0,0,1,2.689,1.251A5.276,5.276,0,0,1,301.156,269.062Zm-6.141,0a4.6,4.6,0,0,0,.617,2.614,2.293,2.293,0,0,0,3.637,0,4.586,4.586,0,0,0,.621-2.618,4.511,4.511,0,0,0-.621-2.595,2.1,2.1,0,0,0-1.835-.887,2.064,2.064,0,0,0-1.81.874A4.569,4.569,0,0,0,295.015,269.062Z" transform="translate(-160.828 -260.728)" fill="#603ce6"/>
      <path id="Trazado_2512" data-name="Trazado 2512" d="M323.1,272.58h-.065a2.784,2.784,0,0,1-2.53,1.365,2.876,2.876,0,0,1-2.46-1.2,5.712,5.712,0,0,1-.879-3.416,5.8,5.8,0,0,1,.883-3.439,3.061,3.061,0,0,1,4.971.1h.1l-.05-.646-.03-.629v-3.644h1.22v12.714h-.992Zm-2.44.228a2.106,2.106,0,0,0,1.812-.755,4.138,4.138,0,0,0,.564-2.439v-.286a4.891,4.891,0,0,0-.57-2.716,2.068,2.068,0,0,0-1.82-.814,1.82,1.82,0,0,0-1.644.928,5.016,5.016,0,0,0-.57,2.618,4.8,4.8,0,0,0,.567,2.591A1.856,1.856,0,0,0,320.66,272.808Z" transform="translate(-159.201 -260.961)" fill="#603ce6"/>
      <path id="Trazado_2513" data-name="Trazado 2513" d="M335.283,273.711a3.517,3.517,0,0,1-2.821-1.21,5.007,5.007,0,0,1-1.032-3.358,5.585,5.585,0,0,1,.959-3.441,3.059,3.059,0,0,1,2.577-1.275,2.905,2.905,0,0,1,2.4,1.107,4.559,4.559,0,0,1,.882,2.922v.859h-5.553a3.8,3.8,0,0,0,.718,2.393,2.352,2.352,0,0,0,1.915.817,5.933,5.933,0,0,0,2.574-.605v1.211a6.054,6.054,0,0,1-1.225.445A6.215,6.215,0,0,1,335.283,273.711Zm-.33-8.147a1.9,1.9,0,0,0-1.549.7,3.442,3.442,0,0,0-.68,1.944h4.214a3.216,3.216,0,0,0-.515-1.965A1.733,1.733,0,0,0,334.953,265.564Z" transform="translate(-158.21 -260.728)" fill="#603ce6"/>
      <path id="Trazado_2514" data-name="Trazado 2514" d="M354.832,273.731V261.785h1.251v11.946Z" transform="translate(-156.584 -260.911)" fill="#603ce6"/>
      <path id="Trazado_2515" data-name="Trazado 2515" d="M369.735,273.547v-5.793a2.517,2.517,0,0,0-.448-1.634,1.723,1.723,0,0,0-1.405-.539,2.2,2.2,0,0,0-1.853.759,4.155,4.155,0,0,0-.588,2.509v4.7h-1.22v-8.956h.992l.2,1.226h.059a2.6,2.6,0,0,1,1.051-1.026,3.143,3.143,0,0,1,1.508-.364,2.872,2.872,0,0,1,2.191.781,3.558,3.558,0,0,1,.735,2.5v5.842Z" transform="translate(-155.932 -260.728)" fill="#603ce6"/>
      <path id="Trazado_2516" data-name="Trazado 2516" d="M384.012,273.547v-5.793a2.51,2.51,0,0,0-.449-1.634,1.721,1.721,0,0,0-1.4-.539,2.192,2.192,0,0,0-1.852.759,4.154,4.154,0,0,0-.589,2.509v4.7H378.5v-8.956h.991l.2,1.226h.06a2.6,2.6,0,0,1,1.051-1.026,3.139,3.139,0,0,1,1.507-.364,2.876,2.876,0,0,1,2.192.781,3.558,3.558,0,0,1,.736,2.5v5.842Z" transform="translate(-154.94 -260.728)" fill="#603ce6"/>
      <path id="Trazado_2517" data-name="Trazado 2517" d="M399.76,269.062a5.3,5.3,0,0,1-.995,3.419,3.327,3.327,0,0,1-2.742,1.23,3.364,3.364,0,0,1-1.92-.564,3.619,3.619,0,0,1-1.294-1.618,6.182,6.182,0,0,1-.456-2.467,5.3,5.3,0,0,1,.985-3.412,3.321,3.321,0,0,1,2.736-1.222,3.256,3.256,0,0,1,2.689,1.251A5.276,5.276,0,0,1,399.76,269.062Zm-6.141,0a4.612,4.612,0,0,0,.617,2.614,2.293,2.293,0,0,0,3.637,0,4.586,4.586,0,0,0,.621-2.618,4.511,4.511,0,0,0-.621-2.595,2.1,2.1,0,0,0-1.835-.887,2.063,2.063,0,0,0-1.81.874A4.569,4.569,0,0,0,393.619,269.062Z" transform="translate(-153.978 -260.728)" fill="#603ce6"/>
      <path id="Trazado_2518" data-name="Trazado 2518" d="M408.748,273.537l-3.06-8.956H407l1.735,5.311q.589,1.864.691,2.419h.06q.08-.433.51-1.793t1.931-5.937h1.308l-3.059,8.956Z" transform="translate(-153.051 -260.717)" fill="#603ce6"/>
      <path id="Trazado_2519" data-name="Trazado 2519" d="M424.583,273.546l-.243-1.275h-.06a3.475,3.475,0,0,1-1.2,1.139,3.345,3.345,0,0,1-1.5.3,2.526,2.526,0,0,1-1.879-.687,2.654,2.654,0,0,1-.68-1.952q0-2.714,3.906-2.845l1.367-.048v-.556a2.445,2.445,0,0,0-.407-1.557,1.586,1.586,0,0,0-1.306-.5,4.925,4.925,0,0,0-2.28.687l-.374-1.037a5.416,5.416,0,0,1,1.3-.564,5.106,5.106,0,0,1,1.424-.2,2.865,2.865,0,0,1,2.137.711,3.174,3.174,0,0,1,.694,2.279v6.112Zm-2.758-.955a2.341,2.341,0,0,0,1.791-.7,2.738,2.738,0,0,0,.649-1.944v-.81l-1.22.058a4.073,4.073,0,0,0-2.1.5,1.57,1.57,0,0,0-.644,1.386,1.481,1.481,0,0,0,.4,1.12A1.559,1.559,0,0,0,421.825,272.591Z" transform="translate(-152.125 -260.727)" fill="#603ce6"/>
      <path id="Trazado_2520" data-name="Trazado 2520" d="M436.288,273.711a3.276,3.276,0,0,1-2.71-1.2,5.285,5.285,0,0,1-.959-3.386,5.452,5.452,0,0,1,.974-3.473,3.337,3.337,0,0,1,2.775-1.227,5.013,5.013,0,0,1,1.163.139,3.549,3.549,0,0,1,.912.327l-.375,1.152a5.33,5.33,0,0,0-.882-.3,3.622,3.622,0,0,0-.847-.119q-2.454,0-2.454,3.481a4.485,4.485,0,0,0,.6,2.534,2.007,2.007,0,0,0,1.775.882,4.956,4.956,0,0,0,2.066-.482v1.2A4.035,4.035,0,0,1,436.288,273.711Z" transform="translate(-151.18 -260.728)" fill="#603ce6"/>
      <path id="Trazado_2521" data-name="Trazado 2521" d="M445.265,262.37a.966.966,0,0,1,.206-.682.707.707,0,0,1,1.021,0,.943.943,0,0,1,.214.678.956.956,0,0,1-.214.682.672.672,0,0,1-.507.225.664.664,0,0,1-.514-.225A.98.98,0,0,1,445.265,262.37Zm1.324,11.382h-1.221V264.8h1.221Z" transform="translate(-150.302 -260.933)" fill="#603ce6"/>
      <path id="Trazado_2522" data-name="Trazado 2522" d="M461.543,269.3a5.3,5.3,0,0,1-.992,3.419,3.627,3.627,0,0,1-4.664.666,3.625,3.625,0,0,1-1.293-1.618,6.163,6.163,0,0,1-.457-2.467,5.29,5.29,0,0,1,.986-3.412,3.319,3.319,0,0,1,2.736-1.222,3.256,3.256,0,0,1,2.688,1.251A5.276,5.276,0,0,1,461.543,269.3Zm-6.141,0a4.613,4.613,0,0,0,.617,2.614,2.293,2.293,0,0,0,3.637,0,4.586,4.586,0,0,0,.621-2.618,4.511,4.511,0,0,0-.621-2.595,2.1,2.1,0,0,0-1.835-.887,2.063,2.063,0,0,0-1.808.874A4.568,4.568,0,0,0,455.4,269.3Zm1.412-5.86q.355-.507.761-1.225c.273-.48.486-.9.644-1.25H459.7v.171a12.1,12.1,0,0,1-.964,1.307,11.282,11.282,0,0,1-1.111,1.2h-.816Z" transform="translate(-149.686 -260.968)" fill="#603ce6"/>
      <path id="Trazado_2523" data-name="Trazado 2523" d="M474.2,273.547v-5.793a2.517,2.517,0,0,0-.447-1.634,1.723,1.723,0,0,0-1.405-.539,2.192,2.192,0,0,0-1.852.759,4.147,4.147,0,0,0-.589,2.509v4.7h-1.22v-8.956h.992l.2,1.226h.06a2.589,2.589,0,0,1,1.051-1.026,3.143,3.143,0,0,1,1.508-.364,2.874,2.874,0,0,1,2.191.781,3.553,3.553,0,0,1,.736,2.5v5.842Z" transform="translate(-148.675 -260.728)" fill="#603ce6"/>
    </g>
    <path id="Trazado_2524" data-name="Trazado 2524" d="M214.55,245.25h-8.881v-31.2L190.943,238.88,176.8,213.813V245.25h-8.881V198.5h10.225l12.972,23.2,13.556-23.2h9.875Z" transform="translate(2.642 0.725)" fill="#603ce6"/>
    <path id="Trazado_2525" data-name="Trazado 2525" d="M253.583,227.518q0,.82-.087,1.7t-.2,1.812h-27a11.642,11.642,0,0,0,1.314,2.775,9.235,9.235,0,0,0,2.075,2.278,9.8,9.8,0,0,0,2.775,1.52,10.037,10.037,0,0,0,3.418.555,13.846,13.846,0,0,0,4.558-.788,11.178,11.178,0,0,0,3.8-2.133l5.317,5.316a23.656,23.656,0,0,1-6.866,3.711,23.075,23.075,0,0,1-7.1,1.081,18.179,18.179,0,0,1-12.825-5.2,17.714,17.714,0,0,1-3.828-5.639,17.8,17.8,0,0,1,0-13.848,17.48,17.48,0,0,1,3.856-5.638,18.606,18.606,0,0,1,5.726-3.8,17.613,17.613,0,0,1,7.011-1.4,18.155,18.155,0,0,1,6.837,1.314,18.564,18.564,0,0,1,5.785,3.652,17.082,17.082,0,0,1,5.434,12.737m-8.823-3.271a10.121,10.121,0,0,0-3.535-5.172,9.2,9.2,0,0,0-5.756-1.957,8.992,8.992,0,0,0-5.668,1.957,10.2,10.2,0,0,0-3.506,5.172Z" transform="translate(6.088 1.511)" fill="#603ce6"/>
    <path id="Trazado_2526" data-name="Trazado 2526" d="M287.554,245.363h-8.59v-1.753a10.668,10.668,0,0,1-3.563,1.957,13.438,13.438,0,0,1-4.091.614,14.92,14.92,0,0,1-6.544-1.431,16.212,16.212,0,0,1-5.143-3.858,17.637,17.637,0,0,1-3.359-5.638,19.238,19.238,0,0,1-1.2-6.777,17.878,17.878,0,0,1,1.373-7.042,18.616,18.616,0,0,1,3.652-5.638,17.259,17.259,0,0,1,5.2-3.769,14.011,14.011,0,0,1,6.018-1.373,15.254,15.254,0,0,1,4.207.584,11.234,11.234,0,0,1,3.506,1.636V196.864h8.531Zm-8.472-9.057V220.063a10.717,10.717,0,0,0-1.35-.789,11.352,11.352,0,0,0-1.583-.643,12.7,12.7,0,0,0-1.643-.409,8.482,8.482,0,0,0-1.466-.147,9.8,9.8,0,0,0-3.843.73,8.782,8.782,0,0,0-3.019,2.1,9.516,9.516,0,0,0-1.995,3.3,12.353,12.353,0,0,0-.7,4.266,11.927,11.927,0,0,0,.7,4.177,10.1,10.1,0,0,0,1.935,3.271,8.533,8.533,0,0,0,2.962,2.134,9.232,9.232,0,0,0,10-1.754" transform="translate(8.696 0.611)" fill="#603ce6"/>
    <path id="Trazado_2527" data-name="Trazado 2527" d="M326.96,227.518q0,.82-.088,1.7t-.2,1.812h-27a11.6,11.6,0,0,0,1.315,2.775,9.194,9.194,0,0,0,2.075,2.278,9.78,9.78,0,0,0,2.775,1.52,10.033,10.033,0,0,0,3.418.555,13.856,13.856,0,0,0,4.558-.788,11.183,11.183,0,0,0,3.8-2.133l5.317,5.316a23.629,23.629,0,0,1-6.866,3.711,23.073,23.073,0,0,1-7.1,1.081,18.184,18.184,0,0,1-12.826-5.2,17.714,17.714,0,0,1-3.828-5.639,17.8,17.8,0,0,1,0-13.848,17.5,17.5,0,0,1,3.856-5.638,18.6,18.6,0,0,1,5.727-3.8,17.609,17.609,0,0,1,7.011-1.4,18.167,18.167,0,0,1,6.837,1.314,18.589,18.589,0,0,1,5.785,3.652,17.082,17.082,0,0,1,5.434,12.737m-8.823-3.271a10.129,10.129,0,0,0-3.536-5.172,9.2,9.2,0,0,0-5.755-1.957,8.99,8.99,0,0,0-5.668,1.957,10.2,10.2,0,0,0-3.507,5.172Z" transform="translate(11.186 1.511)" fill="#603ce6"/>
    <path id="Trazado_2528" data-name="Trazado 2528" d="M346.228,193.956a.307.307,0,0,0,.076.009.329.329,0,0,0,.046,0c2.3-.311,2.785-1.544,2.785-2.525v-.268c0-1.542-1.142-2.582-3.395-3.091a.34.34,0,0,0-.157,0c-1.8.445-2.713,1.348-2.713,2.687,0,1.608,1.129,2.681,3.358,3.19" transform="translate(14.796 0)" fill="#603ce6"/>
    <path id="Trazado_2529" data-name="Trazado 2529" d="M479.321,218.087a.345.345,0,0,0-.174-.048h-.773c-1.184,0-2.28.921-3.26,2.736a.327.327,0,0,0-.033.089c-.568,2.6-2.839,6.261-6.736,10.862-4.038,4.126-8.176,6.219-12.3,6.219h-.135a6.754,6.754,0,0,1-4.872-1.72.326.326,0,0,0-.165-.088c-.406-.089-1.653-1.291-4.451-10.521-1.252-4.313-3.761-6.5-7.456-6.5h-.538c-3.207,0-6.282,1.726-9.149,5.145-1.568,2.063-2.684,3.5-3.477,4.482.774-3.233,1.475-5.758,2.089-7.526a.365.365,0,0,0,.018-.112V220a.356.356,0,0,0-.025-.129c-.027-.065-.073-.123-.106-.186a3.123,3.123,0,0,0-1.448-1.592.345.345,0,0,0-.174-.048h-.774c-1.184,0-2.279.921-3.26,2.736a.327.327,0,0,0-.032.089c-.569,2.6-2.839,6.261-6.737,10.862-4.037,4.126-8.175,6.219-12.3,6.219h-.135a6.754,6.754,0,0,1-4.872-1.72.331.331,0,0,0-.165-.088c-.406-.089-1.653-1.291-4.452-10.521-1.251-4.313-3.76-6.5-7.456-6.5h-.537c-3.207,0-6.282,1.726-9.149,5.145-1.568,2.063-2.684,3.5-3.478,4.482q.841-3.5,1.558-5.875a11.721,11.721,0,0,0,.8-1.861.381.381,0,0,0,.016-.1,2.258,2.258,0,0,0-1.451-2.3,5.279,5.279,0,0,0-.778-.4.342.342,0,0,0-.13-.026,3.225,3.225,0,0,0-2.409,1.341,27.83,27.83,0,0,0-3.793,4.787c-7.071,7.669-13.775,11.558-19.922,11.558a16.166,16.166,0,0,1-5.615-.981c-4.023-1.728-5.979-4.187-5.979-7.521v-.942c0-3.444,1.467-7.046,2.875-10.139s3.092-6.02,4.684-9.007a3.428,3.428,0,0,0,.576-2.538,2.272,2.272,0,0,0-2.73-1.26,5.13,5.13,0,0,0-2.592,1.974,35.258,35.258,0,0,0-4.123,7.887,68.4,68.4,0,0,0-3.288,8.16,15.017,15.017,0,0,0-.166,8.453,13.632,13.632,0,0,0,.91,2.376,14.444,14.444,0,0,0,5.217,5.633,26.48,26.48,0,0,0,10.9,2.822c5.051,0,10.673-2.25,16.729-6.7.821-.684,1.6-1.355,2.33-2.012q-1.059,4-2.11,8.565a.384.384,0,0,0,0,.14c.405,2.175,1.613,2.632,2.555,2.632h.268a3.7,3.7,0,0,0,2.4-1.389c5.482-7.8,8.913-12.495,10.214-13.977,2.074-2.744,4.075-4.135,5.947-4.135l.607,0a1.817,1.817,0,0,1,1.137.609c.256.451,1.066,2.561,3.449,9.9,2.041,5.525,5.994,8.327,11.752,8.327a25.774,25.774,0,0,0,7.793-1.653c2.059-.368,4.683-2.08,8.016-5.235-.383,1.546-.766,3.133-1.146,4.788a.363.363,0,0,0,0,.14c.405,2.175,1.613,2.632,2.555,2.632h.27a3.7,3.7,0,0,0,2.4-1.389c5.482-7.8,8.913-12.495,10.214-13.977,2.074-2.744,4.075-4.135,5.947-4.135l.607,0a1.817,1.817,0,0,1,1.137.609c.256.451,1.067,2.561,3.45,9.9,2.039,5.525,5.993,8.327,11.751,8.327a25.768,25.768,0,0,0,7.793-1.653c2.219-.4,5.093-2.352,8.8-6,4.654-5.306,7.563-10.127,8.648-14.329a.382.382,0,0,0,.011-.084v-.236a2.736,2.736,0,0,0-1.58-2.344" transform="translate(13.889 1.065)" fill="#603ce6"/>
  </g>
</svg>
