<svg xmlns="http://www.w3.org/2000/svg" width="177.734" height="43.122" viewBox="0 0 177.734 43.122">
  <g id="Grupo_21764" data-name="Grupo 21764" transform="translate(-129.889 -188.07)">
    <path id="Trazado_2500" data-name="Trazado 2500" d="M164.37,247.9H153.843l-2.952-2.954h-2.315l-4.144-4.147H134.3a2.23,2.23,0,1,1,0-.923h10.515l4.144,4.144h2.313l2.955,2.956h9.852l6.007-3.815H307.623v.924H170.378Z" transform="translate(0 -24.664)" fill="#fff"/>
    <g id="Grupo_1566" data-name="Grupo 1566" transform="translate(149.956 225.036)">
      <path id="Trazado_2501" data-name="Trazado 2501" d="M169.462,267.449v-5.664h.593v5.067H172.3v.6Z" transform="translate(-169.462 -261.371)" fill="#fff"/>
      <path id="Trazado_2502" data-name="Trazado 2502" d="M184.29,268.76l-.115-.6h-.028a1.649,1.649,0,0,1-.57.54,1.586,1.586,0,0,1-.709.142,1.2,1.2,0,0,1-.891-.326,1.259,1.259,0,0,1-.323-.925q0-1.287,1.852-1.349l.649-.023v-.264a1.159,1.159,0,0,0-.194-.738.751.751,0,0,0-.619-.238,2.332,2.332,0,0,0-1.081.326l-.178-.492a2.588,2.588,0,0,1,.619-.267,2.415,2.415,0,0,1,.675-.1,1.358,1.358,0,0,1,1.013.337,1.5,1.5,0,0,1,.33,1.081v2.9Zm-1.308-.453a1.109,1.109,0,0,0,.849-.33,1.3,1.3,0,0,0,.308-.922v-.384l-.579.027a1.929,1.929,0,0,0-1,.238.744.744,0,0,0-.305.657.7.7,0,0,0,.19.531A.738.738,0,0,0,182.983,268.307Z" transform="translate(-175.472 -262.681)" fill="#fff"/>
      <path id="Trazado_2503" data-name="Trazado 2503" d="M197.448,262.779a1.364,1.364,0,0,1,1.17.572,3.348,3.348,0,0,1,0,3.242,1.36,1.36,0,0,1-1.166.58,1.513,1.513,0,0,1-.682-.153,1.325,1.325,0,0,1-.518-.471h-.042l-.122.546h-.415v-6.028h.579v1.464q0,.492-.027.883h.027A1.33,1.33,0,0,1,197.448,262.779Zm-.084.539a.964.964,0,0,0-.854.378,3.2,3.2,0,0,0,.007,2.553.975.975,0,0,0,.861.385.867.867,0,0,0,.8-.432,2.415,2.415,0,0,0,.262-1.241,2.322,2.322,0,0,0-.262-1.236A.894.894,0,0,0,197.365,263.318Z" transform="translate(-182.38 -261.017)" fill="#fff"/>
      <path id="Trazado_2504" data-name="Trazado 2504" d="M213.025,266.625a2.514,2.514,0,0,1-.471,1.621,1.719,1.719,0,0,1-2.211.316,1.716,1.716,0,0,1-.614-.767,2.922,2.922,0,0,1-.217-1.17,2.511,2.511,0,0,1,.468-1.618,1.573,1.573,0,0,1,1.3-.58,1.544,1.544,0,0,1,1.274.593A2.5,2.5,0,0,1,213.025,266.625Zm-2.912,0a2.183,2.183,0,0,0,.293,1.239,1.087,1.087,0,0,0,1.724,0,2.174,2.174,0,0,0,.295-1.241,2.139,2.139,0,0,0-.295-1.23.994.994,0,0,0-.87-.42.978.978,0,0,0-.857.414A2.166,2.166,0,0,0,210.113,266.625Z" transform="translate(-189.204 -262.673)" fill="#fff"/>
      <path id="Trazado_2505" data-name="Trazado 2505" d="M225.8,264.428a2.044,2.044,0,0,1,.456.047l-.08.6a1.764,1.764,0,0,0-.418-.058.981.981,0,0,0-.794.419,1.631,1.631,0,0,0-.33,1.042v2.278h-.579v-4.246h.478l.066.786h.028a1.808,1.808,0,0,1,.512-.639A1.078,1.078,0,0,1,225.8,264.428Z" transform="translate(-196.373 -262.673)" fill="#fff"/>
      <path id="Trazado_2506" data-name="Trazado 2506" d="M237.5,268.76l-.115-.6h-.027a1.654,1.654,0,0,1-.57.54,1.586,1.586,0,0,1-.709.142,1.2,1.2,0,0,1-.891-.326,1.259,1.259,0,0,1-.323-.925q0-1.287,1.852-1.349l.649-.023v-.264a1.159,1.159,0,0,0-.194-.738.751.751,0,0,0-.619-.238,2.333,2.333,0,0,0-1.081.326l-.178-.492a2.588,2.588,0,0,1,.619-.267,2.414,2.414,0,0,1,.675-.1,1.358,1.358,0,0,1,1.013.337,1.5,1.5,0,0,1,.33,1.081v2.9Zm-1.308-.453a1.109,1.109,0,0,0,.849-.33,1.3,1.3,0,0,0,.309-.922v-.384l-.579.027a1.929,1.929,0,0,0-1,.238.744.744,0,0,0-.305.657.7.7,0,0,0,.19.531A.738.738,0,0,0,236.19,268.307Z" transform="translate(-201.698 -262.681)" fill="#fff"/>
      <path id="Trazado_2507" data-name="Trazado 2507" d="M249.62,267.418a1.762,1.762,0,0,0,.3-.025,1.785,1.785,0,0,0,.227-.053v.492a.975.975,0,0,1-.277.084,1.9,1.9,0,0,1-.33.033q-1.109,0-1.109-1.3v-2.526h-.547v-.31l.547-.267.244-.906h.335v.984h1.109v.5h-1.109v2.5a.924.924,0,0,0,.164.589A.543.543,0,0,0,249.62,267.418Z" transform="translate(-208.115 -261.793)" fill="#fff"/>
      <path id="Trazado_2508" data-name="Trazado 2508" d="M262.56,266.625a2.514,2.514,0,0,1-.471,1.621,1.718,1.718,0,0,1-2.21.316,1.72,1.72,0,0,1-.614-.767,2.931,2.931,0,0,1-.216-1.17,2.508,2.508,0,0,1,.468-1.618,1.572,1.572,0,0,1,1.3-.58,1.544,1.544,0,0,1,1.275.593A2.5,2.5,0,0,1,262.56,266.625Zm-2.912,0a2.182,2.182,0,0,0,.293,1.239,1.087,1.087,0,0,0,1.725,0,2.175,2.175,0,0,0,.295-1.241,2.139,2.139,0,0,0-.295-1.23,1,1,0,0,0-.87-.42.978.978,0,0,0-.858.414A2.166,2.166,0,0,0,259.647,266.625Z" transform="translate(-213.62 -262.673)" fill="#fff"/>
      <path id="Trazado_2509" data-name="Trazado 2509" d="M275.35,264.428a2.049,2.049,0,0,1,.457.047l-.081.6a1.768,1.768,0,0,0-.418-.058.981.981,0,0,0-.793.419,1.628,1.628,0,0,0-.33,1.042v2.278h-.579v-4.246h.478l.066.786h.028a1.815,1.815,0,0,1,.513-.639A1.077,1.077,0,0,1,275.35,264.428Z" transform="translate(-220.796 -262.673)" fill="#fff"/>
      <path id="Trazado_2510" data-name="Trazado 2510" d="M284.878,261.9a.456.456,0,0,1,.1-.324.335.335,0,0,1,.484,0,.447.447,0,0,1,.1.321.453.453,0,0,1-.1.324.319.319,0,0,1-.24.106.315.315,0,0,1-.244-.106A.462.462,0,0,1,284.878,261.9Zm.628,5.4h-.579v-4.246h.579Z" transform="translate(-226.352 -261.216)" fill="#fff"/>
      <path id="Trazado_2511" data-name="Trazado 2511" d="M297.262,266.625a2.515,2.515,0,0,1-.471,1.621,1.719,1.719,0,0,1-2.211.316,1.715,1.715,0,0,1-.613-.767,2.922,2.922,0,0,1-.217-1.17,2.508,2.508,0,0,1,.468-1.618,1.573,1.573,0,0,1,1.3-.58,1.544,1.544,0,0,1,1.275.593A2.5,2.5,0,0,1,297.262,266.625Zm-2.912,0a2.183,2.183,0,0,0,.293,1.239,1.087,1.087,0,0,0,1.725,0,2.175,2.175,0,0,0,.295-1.241,2.139,2.139,0,0,0-.295-1.23.994.994,0,0,0-.87-.42.979.979,0,0,0-.858.414A2.166,2.166,0,0,0,294.35,266.625Z" transform="translate(-230.725 -262.673)" fill="#fff"/>
      <path id="Trazado_2512" data-name="Trazado 2512" d="M319.98,266.526h-.031a1.32,1.32,0,0,1-1.2.647,1.364,1.364,0,0,1-1.166-.569,2.709,2.709,0,0,1-.417-1.62,2.749,2.749,0,0,1,.419-1.631,1.451,1.451,0,0,1,2.357.046h.045l-.024-.306-.014-.3v-1.728h.579V267.1h-.471Zm-1.157.108a1,1,0,0,0,.859-.358,1.962,1.962,0,0,0,.267-1.157v-.135a2.319,2.319,0,0,0-.27-1.288.981.981,0,0,0-.863-.386.863.863,0,0,0-.779.44,2.378,2.378,0,0,0-.27,1.241,2.276,2.276,0,0,0,.269,1.229A.88.88,0,0,0,318.823,266.634Z" transform="translate(-242.267 -261.017)" fill="#fff"/>
      <path id="Trazado_2513" data-name="Trazado 2513" d="M333.257,268.83a1.668,1.668,0,0,1-1.338-.574,2.374,2.374,0,0,1-.489-1.592,2.648,2.648,0,0,1,.455-1.631,1.451,1.451,0,0,1,1.222-.6,1.377,1.377,0,0,1,1.137.525,2.161,2.161,0,0,1,.418,1.385v.407h-2.633a1.8,1.8,0,0,0,.34,1.135,1.115,1.115,0,0,0,.908.387,2.813,2.813,0,0,0,1.221-.287v.574a2.87,2.87,0,0,1-.581.211A2.946,2.946,0,0,1,333.257,268.83Zm-.157-3.863a.9.9,0,0,0-.734.334,1.632,1.632,0,0,0-.323.922h2a1.525,1.525,0,0,0-.244-.932A.822.822,0,0,0,333.1,264.967Z" transform="translate(-249.298 -262.673)" fill="#fff"/>
      <path id="Trazado_2514" data-name="Trazado 2514" d="M354.832,267.449v-5.664h.593v5.664Z" transform="translate(-260.833 -261.371)" fill="#fff"/>
      <path id="Trazado_2515" data-name="Trazado 2515" d="M366.835,268.752v-2.747a1.193,1.193,0,0,0-.212-.775.817.817,0,0,0-.666-.256,1.042,1.042,0,0,0-.879.36,1.97,1.97,0,0,0-.279,1.19v2.228h-.579v-4.246h.471l.094.581h.028a1.23,1.23,0,0,1,.5-.486,1.49,1.49,0,0,1,.715-.172,1.362,1.362,0,0,1,1.039.37,1.687,1.687,0,0,1,.348,1.184v2.77Z" transform="translate(-265.461 -262.673)" fill="#fff"/>
      <path id="Trazado_2516" data-name="Trazado 2516" d="M381.112,268.752v-2.747a1.19,1.19,0,0,0-.213-.775.816.816,0,0,0-.666-.256,1.039,1.039,0,0,0-.878.36,1.969,1.969,0,0,0-.279,1.19v2.228H378.5v-4.246h.47l.094.581h.028a1.23,1.23,0,0,1,.5-.486,1.488,1.488,0,0,1,.715-.172,1.364,1.364,0,0,1,1.04.37,1.687,1.687,0,0,1,.349,1.184v2.77Z" transform="translate(-272.498 -262.673)" fill="#fff"/>
      <path id="Trazado_2517" data-name="Trazado 2517" d="M395.866,266.625a2.512,2.512,0,0,1-.472,1.621,1.578,1.578,0,0,1-1.3.583,1.6,1.6,0,0,1-.91-.267,1.716,1.716,0,0,1-.614-.767,2.932,2.932,0,0,1-.216-1.17,2.511,2.511,0,0,1,.467-1.618,1.575,1.575,0,0,1,1.3-.58,1.544,1.544,0,0,1,1.275.593A2.5,2.5,0,0,1,395.866,266.625Zm-2.912,0a2.187,2.187,0,0,0,.293,1.239,1.087,1.087,0,0,0,1.725,0,2.174,2.174,0,0,0,.295-1.241,2.139,2.139,0,0,0-.295-1.23.994.994,0,0,0-.87-.42.978.978,0,0,0-.858.414A2.166,2.166,0,0,0,392.954,266.625Z" transform="translate(-279.328 -262.673)" fill="#fff"/>
      <path id="Trazado_2518" data-name="Trazado 2518" d="M407.139,268.827l-1.451-4.246h.621l.822,2.518q.279.884.328,1.147h.028q.038-.205.242-.85t.916-2.815h.62l-1.45,4.246Z" transform="translate(-285.901 -262.749)" fill="#fff"/>
      <path id="Trazado_2519" data-name="Trazado 2519" d="M421.659,268.76l-.115-.6h-.028a1.648,1.648,0,0,1-.569.54,1.586,1.586,0,0,1-.71.142,1.2,1.2,0,0,1-.891-.326,1.259,1.259,0,0,1-.323-.925q0-1.287,1.852-1.349l.648-.023v-.264a1.159,1.159,0,0,0-.193-.738.752.752,0,0,0-.619-.238,2.335,2.335,0,0,0-1.081.326l-.177-.492a2.566,2.566,0,0,1,.619-.267,2.42,2.42,0,0,1,.675-.1,1.359,1.359,0,0,1,1.013.337,1.5,1.5,0,0,1,.329,1.081v2.9Zm-1.308-.453a1.11,1.11,0,0,0,.849-.33,1.3,1.3,0,0,0,.308-.922v-.384l-.579.027a1.932,1.932,0,0,0-1,.238.744.744,0,0,0-.305.657.7.7,0,0,0,.19.531A.739.739,0,0,0,420.352,268.307Z" transform="translate(-292.474 -262.681)" fill="#fff"/>
      <path id="Trazado_2520" data-name="Trazado 2520" d="M434.359,268.83a1.553,1.553,0,0,1-1.285-.568,2.506,2.506,0,0,1-.455-1.605,2.585,2.585,0,0,1,.462-1.647,1.582,1.582,0,0,1,1.316-.582,2.377,2.377,0,0,1,.551.066,1.682,1.682,0,0,1,.433.155l-.178.546a2.531,2.531,0,0,0-.418-.142,1.717,1.717,0,0,0-.4-.056q-1.164,0-1.164,1.651a2.126,2.126,0,0,0,.284,1.2.952.952,0,0,0,.842.418,2.35,2.35,0,0,0,.98-.229v.57A1.913,1.913,0,0,1,434.359,268.83Z" transform="translate(-299.175 -262.673)" fill="#fff"/>
      <path id="Trazado_2521" data-name="Trazado 2521" d="M445.265,261.9a.458.458,0,0,1,.1-.324.335.335,0,0,1,.484,0,.447.447,0,0,1,.1.321.453.453,0,0,1-.1.324.319.319,0,0,1-.24.106.315.315,0,0,1-.244-.106A.465.465,0,0,1,445.265,261.9Zm.628,5.4h-.579v-4.246h.579Z" transform="translate(-305.409 -261.216)" fill="#fff"/>
      <path id="Trazado_2522" data-name="Trazado 2522" d="M457.649,264.92a2.515,2.515,0,0,1-.471,1.621,1.72,1.72,0,0,1-2.211.316,1.719,1.719,0,0,1-.613-.767,2.922,2.922,0,0,1-.216-1.17,2.508,2.508,0,0,1,.468-1.618,1.573,1.573,0,0,1,1.3-.58,1.544,1.544,0,0,1,1.274.593A2.5,2.5,0,0,1,457.649,264.92Zm-2.912,0a2.187,2.187,0,0,0,.293,1.239,1.087,1.087,0,0,0,1.725,0,2.174,2.174,0,0,0,.295-1.241,2.139,2.139,0,0,0-.295-1.23.994.994,0,0,0-.87-.42.978.978,0,0,0-.857.414A2.166,2.166,0,0,0,454.737,264.92Zm.669-2.778q.168-.24.361-.581c.129-.228.23-.425.305-.593h.7v.081a5.744,5.744,0,0,1-.457.62,5.341,5.341,0,0,1-.527.569h-.387Z" transform="translate(-309.782 -260.968)" fill="#fff"/>
      <path id="Trazado_2523" data-name="Trazado 2523" d="M471.3,268.752v-2.747a1.193,1.193,0,0,0-.212-.775.817.817,0,0,0-.666-.256,1.039,1.039,0,0,0-.878.36,1.966,1.966,0,0,0-.279,1.19v2.228h-.579v-4.246h.471l.094.581h.028a1.227,1.227,0,0,1,.5-.486,1.49,1.49,0,0,1,.715-.172,1.363,1.363,0,0,1,1.039.37,1.685,1.685,0,0,1,.349,1.184v2.77Z" transform="translate(-316.951 -262.673)" fill="#fff"/>
    </g>
    <path id="Trazado_2524" data-name="Trazado 2524" d="M190.03,220.668h-4.211V205.873l-6.982,11.775-6.7-11.885v14.905h-4.211V198.5h4.848l6.151,11,6.428-11h4.682Z" transform="translate(-18.746 -5.143)" fill="#fff"/>
    <path id="Trazado_2525" data-name="Trazado 2525" d="M234.625,218.208q0,.389-.041.8t-.1.859h-12.8a5.519,5.519,0,0,0,.623,1.316,4.379,4.379,0,0,0,.984,1.08,4.644,4.644,0,0,0,1.316.721,4.759,4.759,0,0,0,1.621.263,6.565,6.565,0,0,0,2.161-.374,5.3,5.3,0,0,0,1.8-1.011l2.521,2.521a11.217,11.217,0,0,1-3.255,1.76,10.941,10.941,0,0,1-3.367.513,8.619,8.619,0,0,1-6.081-2.466,8.4,8.4,0,0,1-1.815-2.674,8.438,8.438,0,0,1,0-6.566,8.288,8.288,0,0,1,1.829-2.673,8.822,8.822,0,0,1,2.715-1.8,8.352,8.352,0,0,1,3.324-.665,8.608,8.608,0,0,1,3.242.623,8.8,8.8,0,0,1,2.743,1.732,8.1,8.1,0,0,1,2.576,6.039m-4.183-1.551a4.8,4.8,0,0,0-1.676-2.452,4.362,4.362,0,0,0-2.729-.928,4.264,4.264,0,0,0-2.688.928,4.834,4.834,0,0,0-1.662,2.452Z" transform="translate(-43.2 -10.718)" fill="#fff"/>
    <path id="Trazado_2526" data-name="Trazado 2526" d="M270.47,219.86H266.4v-.831a5.058,5.058,0,0,1-1.69.928,6.371,6.371,0,0,1-1.94.291,7.074,7.074,0,0,1-3.1-.678,7.687,7.687,0,0,1-2.439-1.829,8.362,8.362,0,0,1-1.593-2.673,9.122,9.122,0,0,1-.568-3.213,8.477,8.477,0,0,1,.651-3.339,8.826,8.826,0,0,1,1.732-2.673,8.184,8.184,0,0,1,2.466-1.787,6.643,6.643,0,0,1,2.853-.651,7.232,7.232,0,0,1,1.995.277,5.328,5.328,0,0,1,1.662.776v-7.592h4.045Zm-4.017-4.295v-7.7a5.085,5.085,0,0,0-.64-.374,5.383,5.383,0,0,0-.75-.3,6.025,6.025,0,0,0-.779-.194,4.021,4.021,0,0,0-.7-.069,4.645,4.645,0,0,0-1.822.346,4.163,4.163,0,0,0-1.432,1,4.512,4.512,0,0,0-.946,1.565,5.858,5.858,0,0,0-.334,2.023,5.656,5.656,0,0,0,.334,1.981,4.788,4.788,0,0,0,.917,1.551,4.046,4.046,0,0,0,1.4,1.012,4.378,4.378,0,0,0,4.742-.832" transform="translate(-61.701 -4.335)" fill="#fff"/>
    <path id="Trazado_2527" data-name="Trazado 2527" d="M308,218.208q0,.389-.042.8t-.1.859h-12.8a5.5,5.5,0,0,0,.624,1.316,4.36,4.36,0,0,0,.984,1.08,4.637,4.637,0,0,0,1.316.721,4.757,4.757,0,0,0,1.621.263,6.569,6.569,0,0,0,2.161-.374,5.3,5.3,0,0,0,1.8-1.011l2.521,2.521a11.2,11.2,0,0,1-3.255,1.76,10.94,10.94,0,0,1-3.366.513,8.622,8.622,0,0,1-6.082-2.466,8.4,8.4,0,0,1-1.815-2.674,8.438,8.438,0,0,1,0-6.566,8.3,8.3,0,0,1,1.829-2.673,8.818,8.818,0,0,1,2.715-1.8,8.35,8.35,0,0,1,3.324-.665,8.614,8.614,0,0,1,3.242.623,8.814,8.814,0,0,1,2.743,1.732A8.1,8.1,0,0,1,308,218.208m-4.183-1.551a4.8,4.8,0,0,0-1.676-2.452,4.36,4.36,0,0,0-2.729-.928,4.262,4.262,0,0,0-2.688.928,4.835,4.835,0,0,0-1.663,2.452Z" transform="translate(-79.368 -10.718)" fill="#fff"/>
    <path id="Trazado_2528" data-name="Trazado 2528" d="M344.462,190.861a.145.145,0,0,0,.036,0h.022c1.091-.148,1.32-.732,1.32-1.2v-.127c0-.731-.542-1.224-1.61-1.465a.161.161,0,0,0-.075,0c-.854.211-1.286.639-1.286,1.274,0,.763.535,1.271,1.592,1.513" transform="translate(-104.981 0)" fill="#fff"/>
    <path id="Trazado_2529" data-name="Trazado 2529" d="M400.706,210.362a.164.164,0,0,0-.083-.023h-.367c-.561,0-1.081.437-1.546,1.3a.154.154,0,0,0-.016.042c-.269,1.233-1.346,2.968-3.194,5.15-1.915,1.956-3.877,2.949-5.831,2.949h-.064a3.2,3.2,0,0,1-2.31-.815.155.155,0,0,0-.078-.042c-.193-.042-.784-.612-2.11-4.989-.594-2.045-1.783-3.082-3.535-3.082h-.255a5.765,5.765,0,0,0-4.338,2.44c-.743.978-1.273,1.657-1.649,2.125.367-1.533.7-2.73.99-3.568a.173.173,0,0,0,.009-.053v-.526a.169.169,0,0,0-.012-.061c-.013-.031-.034-.058-.05-.088a1.48,1.48,0,0,0-.687-.755.164.164,0,0,0-.083-.023h-.367c-.561,0-1.081.437-1.546,1.3a.156.156,0,0,0-.015.042c-.27,1.233-1.346,2.968-3.194,5.15-1.914,1.956-3.876,2.949-5.831,2.949h-.064a3.2,3.2,0,0,1-2.31-.815.157.157,0,0,0-.078-.042c-.193-.042-.784-.612-2.111-4.989-.593-2.045-1.783-3.082-3.535-3.082h-.255a5.765,5.765,0,0,0-4.338,2.44c-.743.978-1.273,1.657-1.649,2.125q.4-1.661.739-2.785a5.557,5.557,0,0,0,.381-.882.18.18,0,0,0,.008-.049,1.071,1.071,0,0,0-.688-1.09,2.5,2.5,0,0,0-.369-.192.162.162,0,0,0-.062-.012,1.529,1.529,0,0,0-1.142.636,13.2,13.2,0,0,0-1.8,2.27c-3.353,3.636-6.531,5.48-9.446,5.48a7.666,7.666,0,0,1-2.662-.465c-1.908-.819-2.835-1.985-2.835-3.566v-.447a12.236,12.236,0,0,1,1.363-4.807c.665-1.46,1.466-2.854,2.221-4.271a1.625,1.625,0,0,0,.273-1.2,1.077,1.077,0,0,0-1.295-.6,2.432,2.432,0,0,0-1.229.936,16.718,16.718,0,0,0-1.955,3.74,32.428,32.428,0,0,0-1.559,3.869,7.12,7.12,0,0,0-.079,4.008,6.464,6.464,0,0,0,.431,1.127,6.848,6.848,0,0,0,2.474,2.671,12.555,12.555,0,0,0,5.169,1.338c2.395,0,5.061-1.067,7.932-3.178.389-.325.757-.642,1.1-.954q-.5,1.9-1,4.061a.182.182,0,0,0,0,.066c.192,1.031.765,1.248,1.211,1.248h.127a1.756,1.756,0,0,0,1.137-.659c2.6-3.7,4.226-5.924,4.843-6.627.983-1.3,1.932-1.96,2.82-1.96h.288a.861.861,0,0,1,.539.289c.121.214.506,1.214,1.635,4.692a5.517,5.517,0,0,0,5.572,3.948,12.221,12.221,0,0,0,3.7-.784c.976-.174,2.221-.986,3.8-2.482-.182.733-.363,1.485-.544,2.27a.171.171,0,0,0,0,.066c.192,1.031.765,1.248,1.211,1.248h.128a1.756,1.756,0,0,0,1.137-.659c2.6-3.7,4.226-5.924,4.843-6.627.983-1.3,1.932-1.96,2.82-1.96h.288a.861.861,0,0,1,.539.289,49.546,49.546,0,0,1,1.636,4.692,5.516,5.516,0,0,0,5.572,3.948,12.218,12.218,0,0,0,3.7-.784c1.052-.188,2.415-1.115,4.175-2.843a17.756,17.756,0,0,0,4.1-6.794.178.178,0,0,0,.005-.04v-.112a1.3,1.3,0,0,0-.749-1.112" transform="translate(-98.548 -7.555)" fill="#fff"/>
  </g>
</svg>
