<svg xmlns="http://www.w3.org/2000/svg" width="473.1" height="114.783" viewBox="0 0 473.1 114.783">
  <g id="Grupo_20244" data-name="Grupo 20244" transform="translate(-129.889 -188.07)">
    <path id="Trazado_2500" data-name="Trazado 2500" d="M221.672,264.174h-28.02l-7.858-7.863h-6.162L168.6,245.273h-26.97a5.936,5.936,0,1,1,0-2.457h27.989l11.032,11.032h6.158l7.867,7.868H220.9l15.991-10.156h366.1v2.461H237.665Z" transform="translate(0 17.503)" fill="#b04390"/>
    <g id="Grupo_1566" data-name="Grupo 1566" transform="translate(183.304 286.467)">
      <path id="Trazado_2501" data-name="Trazado 2501" d="M169.462,276.862V261.785h1.578v13.488h5.986v1.589Z" transform="translate(-169.462 -260.682)" fill="#b04390"/>
      <path id="Trazado_2502" data-name="Trazado 2502" d="M188.672,275.932l-.306-1.609h-.074a4.389,4.389,0,0,1-1.517,1.438,4.22,4.22,0,0,1-1.888.378,3.188,3.188,0,0,1-2.372-.867,3.351,3.351,0,0,1-.86-2.463q0-3.426,4.929-3.59l1.726-.061v-.7a3.086,3.086,0,0,0-.516-1.965,2,2,0,0,0-1.647-.634,6.207,6.207,0,0,0-2.878.867l-.474-1.309a6.893,6.893,0,0,1,1.648-.711,6.429,6.429,0,0,1,1.8-.258,3.615,3.615,0,0,1,2.7.9,4,4,0,0,1,.877,2.876v7.714Zm-3.481-1.205a2.953,2.953,0,0,0,2.261-.877,3.45,3.45,0,0,0,.821-2.454v-1.022l-1.54.073a5.133,5.133,0,0,0-2.65.633,1.982,1.982,0,0,0-.813,1.749,1.869,1.869,0,0,0,.506,1.413A1.964,1.964,0,0,0,185.19,274.727Z" transform="translate(-165.197 -259.752)" fill="#b04390"/>
      <path id="Trazado_2503" data-name="Trazado 2503" d="M200.4,265.625a3.629,3.629,0,0,1,3.114,1.521,8.913,8.913,0,0,1-.009,8.63,3.621,3.621,0,0,1-3.1,1.543,4.029,4.029,0,0,1-1.814-.408,3.527,3.527,0,0,1-1.379-1.253H197.1l-.325,1.454h-1.1V261.067h1.54v3.9q0,1.31-.073,2.351h.073A3.54,3.54,0,0,1,200.4,265.625Zm-.223,1.434a2.567,2.567,0,0,0-2.274,1.006,8.528,8.528,0,0,0,.019,6.795,2.6,2.6,0,0,0,2.292,1.026,2.308,2.308,0,0,0,2.116-1.149,6.428,6.428,0,0,0,.7-3.3,6.18,6.18,0,0,0-.7-3.291A2.379,2.379,0,0,0,200.181,267.059Z" transform="translate(-160.295 -260.933)" fill="#b04390"/>
      <path id="Trazado_2504" data-name="Trazado 2504" d="M218.86,270.277a6.693,6.693,0,0,1-1.253,4.315,4.576,4.576,0,0,1-5.885.841,4.568,4.568,0,0,1-1.633-2.042,7.779,7.779,0,0,1-.576-3.114,6.685,6.685,0,0,1,1.245-4.306,4.188,4.188,0,0,1,3.453-1.543,4.109,4.109,0,0,1,3.392,1.579A6.659,6.659,0,0,1,218.86,270.277Zm-7.75,0a5.81,5.81,0,0,0,.78,3.3,2.893,2.893,0,0,0,4.589.005,5.788,5.788,0,0,0,.784-3.3,5.694,5.694,0,0,0-.784-3.275,2.646,2.646,0,0,0-2.316-1.119,2.6,2.6,0,0,0-2.283,1.1A5.766,5.766,0,0,0,211.11,270.277Z" transform="translate(-155.453 -259.758)" fill="#b04390"/>
      <path id="Trazado_2505" data-name="Trazado 2505" d="M228.7,264.428a5.444,5.444,0,0,1,1.215.124l-.213,1.589a4.7,4.7,0,0,0-1.112-.155,2.612,2.612,0,0,0-2.112,1.115,4.342,4.342,0,0,0-.877,2.772v6.065h-1.54v-11.3h1.272l.175,2.094h.076a4.814,4.814,0,0,1,1.363-1.7A2.869,2.869,0,0,1,228.7,264.428Z" transform="translate(-150.365 -259.758)" fill="#b04390"/>
      <path id="Trazado_2506" data-name="Trazado 2506" d="M241.879,275.932l-.306-1.609H241.5a4.4,4.4,0,0,1-1.518,1.438,4.22,4.22,0,0,1-1.888.378,3.189,3.189,0,0,1-2.372-.867,3.351,3.351,0,0,1-.86-2.463q0-3.426,4.929-3.59l1.726-.061v-.7A3.086,3.086,0,0,0,241,266.49a2,2,0,0,0-1.647-.634,6.211,6.211,0,0,0-2.878.867L236,265.413a6.893,6.893,0,0,1,1.648-.711,6.429,6.429,0,0,1,1.8-.258,3.615,3.615,0,0,1,2.7.9,4,4,0,0,1,.877,2.876v7.714Zm-3.481-1.205a2.951,2.951,0,0,0,2.261-.877,3.451,3.451,0,0,0,.822-2.454v-1.022l-1.541.073a5.133,5.133,0,0,0-2.65.633,1.981,1.981,0,0,0-.813,1.749,1.869,1.869,0,0,0,.506,1.413A1.964,1.964,0,0,0,238.4,274.727Z" transform="translate(-146.586 -259.752)" fill="#b04390"/>
      <path id="Trazado_2507" data-name="Trazado 2507" d="M252.512,275.357a4.691,4.691,0,0,0,.788-.068,4.763,4.763,0,0,0,.6-.14v1.309a2.6,2.6,0,0,1-.738.223,5.043,5.043,0,0,1-.877.088q-2.952,0-2.952-3.454V266.59H247.88v-.826l1.456-.711.651-2.412h.891v2.619h2.952v1.331h-2.952v6.652a2.459,2.459,0,0,0,.436,1.567A1.445,1.445,0,0,0,252.512,275.357Z" transform="translate(-142.033 -260.383)" fill="#b04390"/>
      <path id="Trazado_2508" data-name="Trazado 2508" d="M268.4,270.277a6.693,6.693,0,0,1-1.254,4.315,4.574,4.574,0,0,1-5.884.841,4.579,4.579,0,0,1-1.635-2.042,7.8,7.8,0,0,1-.575-3.114,6.677,6.677,0,0,1,1.244-4.306,4.186,4.186,0,0,1,3.451-1.543,4.11,4.11,0,0,1,3.393,1.579A6.659,6.659,0,0,1,268.4,270.277Zm-7.752,0a5.81,5.81,0,0,0,.78,3.3,2.894,2.894,0,0,0,4.591.005,5.788,5.788,0,0,0,.784-3.3,5.694,5.694,0,0,0-.784-3.275,2.647,2.647,0,0,0-2.316-1.119,2.6,2.6,0,0,0-2.284,1.1A5.765,5.765,0,0,0,260.643,270.277Z" transform="translate(-138.126 -259.758)" fill="#b04390"/>
      <path id="Trazado_2509" data-name="Trazado 2509" d="M278.248,264.428a5.457,5.457,0,0,1,1.216.124l-.215,1.589a4.707,4.707,0,0,0-1.114-.155,2.612,2.612,0,0,0-2.111,1.115,4.334,4.334,0,0,0-.877,2.772v6.065h-1.541v-11.3h1.273l.175,2.094h.074a4.832,4.832,0,0,1,1.365-1.7A2.866,2.866,0,0,1,278.248,264.428Z" transform="translate(-133.034 -259.758)" fill="#b04390"/>
      <path id="Trazado_2510" data-name="Trazado 2510" d="M284.878,262.606a1.213,1.213,0,0,1,.261-.861.892.892,0,0,1,1.289.005,1.19,1.19,0,0,1,.27.856,1.206,1.206,0,0,1-.27.861.848.848,0,0,1-.64.283.838.838,0,0,1-.649-.283A1.231,1.231,0,0,1,284.878,262.606Zm1.671,14.366h-1.541v-11.3h1.541Z" transform="translate(-129.091 -260.792)" fill="#b04390"/>
      <path id="Trazado_2511" data-name="Trazado 2511" d="M303.1,270.277a6.693,6.693,0,0,1-1.254,4.315,4.576,4.576,0,0,1-5.885.841,4.566,4.566,0,0,1-1.632-2.042,7.779,7.779,0,0,1-.576-3.114,6.677,6.677,0,0,1,1.245-4.306,4.186,4.186,0,0,1,3.451-1.543,4.11,4.11,0,0,1,3.393,1.579A6.659,6.659,0,0,1,303.1,270.277Zm-7.75,0a5.811,5.811,0,0,0,.779,3.3,2.894,2.894,0,0,0,4.591.005,5.788,5.788,0,0,0,.784-3.3,5.694,5.694,0,0,0-.784-3.275,2.646,2.646,0,0,0-2.316-1.119,2.606,2.606,0,0,0-2.284,1.1A5.767,5.767,0,0,0,295.347,270.277Z" transform="translate(-125.988 -259.758)" fill="#b04390"/>
      <path id="Trazado_2512" data-name="Trazado 2512" d="M324.656,275.6h-.082a3.513,3.513,0,0,1-3.194,1.722,3.629,3.629,0,0,1-3.1-1.516,7.209,7.209,0,0,1-1.11-4.311,7.318,7.318,0,0,1,1.115-4.341,3.863,3.863,0,0,1,6.274.123h.12l-.063-.815-.038-.794v-4.6h1.54v16.046h-1.253Zm-3.08.288a2.658,2.658,0,0,0,2.287-.953,5.223,5.223,0,0,0,.711-3.079v-.36a6.173,6.173,0,0,0-.719-3.428,2.61,2.61,0,0,0-2.3-1.027,2.3,2.3,0,0,0-2.075,1.172,6.33,6.33,0,0,0-.719,3.3,6.058,6.058,0,0,0,.715,3.271A2.343,2.343,0,0,0,321.576,275.885Z" transform="translate(-117.797 -260.933)" fill="#b04390"/>
      <path id="Trazado_2513" data-name="Trazado 2513" d="M336.293,276.144a4.438,4.438,0,0,1-3.561-1.527,6.319,6.319,0,0,1-1.3-4.238,7.049,7.049,0,0,1,1.211-4.342,3.861,3.861,0,0,1,3.253-1.609,3.667,3.667,0,0,1,3.026,1.4,5.754,5.754,0,0,1,1.114,3.688V270.6h-7.008a4.8,4.8,0,0,0,.906,3.021,2.968,2.968,0,0,0,2.418,1.031,7.488,7.488,0,0,0,3.249-.764v1.528a7.641,7.641,0,0,1-1.546.561A7.844,7.844,0,0,1,336.293,276.144Zm-.417-10.283a2.394,2.394,0,0,0-1.954.888,4.344,4.344,0,0,0-.858,2.454h5.318a4.059,4.059,0,0,0-.651-2.48A2.187,2.187,0,0,0,335.876,265.861Z" transform="translate(-112.808 -259.758)" fill="#b04390"/>
      <path id="Trazado_2514" data-name="Trazado 2514" d="M354.832,276.862V261.785h1.579v15.077Z" transform="translate(-104.622 -260.682)" fill="#b04390"/>
      <path id="Trazado_2515" data-name="Trazado 2515" d="M371.181,275.938v-7.312a3.176,3.176,0,0,0-.566-2.062,2.175,2.175,0,0,0-1.774-.68,2.773,2.773,0,0,0-2.339.958,5.244,5.244,0,0,0-.742,3.167v5.93h-1.54v-11.3h1.253l.251,1.547h.074a3.276,3.276,0,0,1,1.327-1.294,3.967,3.967,0,0,1,1.9-.459,3.625,3.625,0,0,1,2.766.985,4.49,4.49,0,0,1,.927,3.15v7.374Z" transform="translate(-101.338 -259.758)" fill="#b04390"/>
      <path id="Trazado_2516" data-name="Trazado 2516" d="M385.458,275.938v-7.312a3.168,3.168,0,0,0-.567-2.062,2.172,2.172,0,0,0-1.772-.68,2.767,2.767,0,0,0-2.338.958,5.243,5.243,0,0,0-.744,3.167v5.93H378.5v-11.3h1.251l.251,1.547h.076a3.276,3.276,0,0,1,1.327-1.294,3.962,3.962,0,0,1,1.9-.459,3.63,3.63,0,0,1,2.767.985,4.491,4.491,0,0,1,.929,3.15v7.374Z" transform="translate(-96.345 -259.758)" fill="#b04390"/>
      <path id="Trazado_2517" data-name="Trazado 2517" d="M401.7,270.277a6.685,6.685,0,0,1-1.255,4.315,4.2,4.2,0,0,1-3.461,1.552,4.246,4.246,0,0,1-2.423-.711,4.568,4.568,0,0,1-1.633-2.042,7.8,7.8,0,0,1-.575-3.114,6.685,6.685,0,0,1,1.243-4.306,4.192,4.192,0,0,1,3.453-1.543,4.11,4.11,0,0,1,3.393,1.579A6.658,6.658,0,0,1,401.7,270.277Zm-7.75,0a5.821,5.821,0,0,0,.779,3.3,2.894,2.894,0,0,0,4.591.005,5.788,5.788,0,0,0,.784-3.3A5.694,5.694,0,0,0,399.32,267,2.646,2.646,0,0,0,397,265.883a2.6,2.6,0,0,0-2.284,1.1A5.767,5.767,0,0,0,393.951,270.277Z" transform="translate(-91.498 -259.758)" fill="#b04390"/>
      <path id="Trazado_2518" data-name="Trazado 2518" d="M409.55,275.884l-3.862-11.3h1.654l2.189,6.7q.743,2.353.872,3.053h.076q.1-.547.644-2.264t2.438-7.493h1.651l-3.86,11.3Z" transform="translate(-86.834 -259.704)" fill="#b04390"/>
      <path id="Trazado_2519" data-name="Trazado 2519" d="M426.041,275.932l-.306-1.609h-.076a4.387,4.387,0,0,1-1.516,1.438,4.222,4.222,0,0,1-1.89.378,3.189,3.189,0,0,1-2.372-.867,3.35,3.35,0,0,1-.858-2.463q0-3.426,4.929-3.59l1.725-.061v-.7a3.086,3.086,0,0,0-.514-1.965,2,2,0,0,0-1.648-.634,6.216,6.216,0,0,0-2.878.867l-.472-1.309a6.837,6.837,0,0,1,1.647-.711,6.444,6.444,0,0,1,1.8-.258,3.616,3.616,0,0,1,2.7.9,4.005,4.005,0,0,1,.876,2.876v7.714Zm-3.481-1.205a2.955,2.955,0,0,0,2.261-.877,3.456,3.456,0,0,0,.819-2.454v-1.022l-1.54.073a5.141,5.141,0,0,0-2.65.633,1.982,1.982,0,0,0-.813,1.749,1.869,1.869,0,0,0,.506,1.413A1.967,1.967,0,0,0,422.559,274.727Z" transform="translate(-82.169 -259.752)" fill="#b04390"/>
      <path id="Trazado_2520" data-name="Trazado 2520" d="M437.25,276.144a4.135,4.135,0,0,1-3.42-1.512,6.67,6.67,0,0,1-1.211-4.273,6.881,6.881,0,0,1,1.23-4.383,4.212,4.212,0,0,1,3.5-1.548,6.325,6.325,0,0,1,1.467.175,4.478,4.478,0,0,1,1.151.413l-.474,1.454a6.732,6.732,0,0,0-1.114-.377,4.57,4.57,0,0,0-1.069-.15q-3.1,0-3.1,4.394a5.661,5.661,0,0,0,.756,3.2,2.533,2.533,0,0,0,2.241,1.114,6.255,6.255,0,0,0,2.608-.609v1.517A5.092,5.092,0,0,1,437.25,276.144Z" transform="translate(-77.413 -259.758)" fill="#b04390"/>
      <path id="Trazado_2521" data-name="Trazado 2521" d="M445.265,262.606a1.219,1.219,0,0,1,.26-.861.892.892,0,0,1,1.289.005,1.19,1.19,0,0,1,.27.856,1.206,1.206,0,0,1-.27.861.848.848,0,0,1-.64.283.838.838,0,0,1-.649-.283A1.237,1.237,0,0,1,445.265,262.606Zm1.671,14.366h-1.541v-11.3h1.541Z" transform="translate(-72.99 -260.792)" fill="#b04390"/>
      <path id="Trazado_2522" data-name="Trazado 2522" d="M463.484,271.487a6.693,6.693,0,0,1-1.253,4.315,4.578,4.578,0,0,1-5.886.841,4.575,4.575,0,0,1-1.632-2.042,7.779,7.779,0,0,1-.576-3.114,6.677,6.677,0,0,1,1.245-4.306,4.188,4.188,0,0,1,3.453-1.543,4.109,4.109,0,0,1,3.392,1.579A6.659,6.659,0,0,1,463.484,271.487Zm-7.75,0a5.822,5.822,0,0,0,.779,3.3,2.894,2.894,0,0,0,4.591.005,5.788,5.788,0,0,0,.784-3.3,5.694,5.694,0,0,0-.784-3.275,2.646,2.646,0,0,0-2.316-1.119,2.6,2.6,0,0,0-2.282,1.1A5.765,5.765,0,0,0,455.734,271.487Zm1.782-7.4q.447-.64.961-1.546c.344-.606.613-1.131.813-1.578h1.875v.216a15.275,15.275,0,0,1-1.216,1.649,14.242,14.242,0,0,1-1.4,1.516h-1.03Z" transform="translate(-69.887 -260.968)" fill="#b04390"/>
      <path id="Trazado_2523" data-name="Trazado 2523" d="M475.642,275.938v-7.312a3.177,3.177,0,0,0-.564-2.062,2.175,2.175,0,0,0-1.774-.68,2.767,2.767,0,0,0-2.338.958,5.234,5.234,0,0,0-.744,3.167v5.93h-1.54v-11.3h1.253l.25,1.547h.076a3.268,3.268,0,0,1,1.327-1.294,3.967,3.967,0,0,1,1.9-.459,3.627,3.627,0,0,1,2.766.985,4.484,4.484,0,0,1,.929,3.15v7.374Z" transform="translate(-64.799 -259.758)" fill="#b04390"/>
    </g>
    <path id="Trazado_2524" data-name="Trazado 2524" d="M226.771,257.5H215.562V218.12l-18.584,31.343L179.13,217.826V257.5H167.921v-59h12.905L197.2,227.782,214.308,198.5h12.463Z" transform="translate(13.303 3.65)" fill="#b04390"/>
    <path id="Trazado_2525" data-name="Trazado 2525" d="M263.032,232.158q0,1.035-.109,2.139t-.258,2.287H228.592a14.693,14.693,0,0,0,1.659,3.5,11.656,11.656,0,0,0,2.619,2.875,12.362,12.362,0,0,0,3.5,1.918,12.669,12.669,0,0,0,4.314.7,17.475,17.475,0,0,0,5.753-.995,14.108,14.108,0,0,0,4.794-2.691l6.711,6.71a29.857,29.857,0,0,1-8.666,4.684,29.122,29.122,0,0,1-8.961,1.365,22.944,22.944,0,0,1-16.187-6.564,22.357,22.357,0,0,1-4.831-7.117,22.461,22.461,0,0,1,0-17.477,22.061,22.061,0,0,1,4.867-7.116,23.482,23.482,0,0,1,7.227-4.794,22.229,22.229,0,0,1,8.849-1.77,22.913,22.913,0,0,1,8.629,1.659,23.43,23.43,0,0,1,7.3,4.609,21.559,21.559,0,0,1,6.858,16.076M251.9,228.029a12.773,12.773,0,0,0-4.461-6.528,11.611,11.611,0,0,0-7.265-2.47,11.349,11.349,0,0,0-7.154,2.47,12.867,12.867,0,0,0-4.425,6.528Z" transform="translate(30.656 7.606)" fill="#b04390"/>
    <path id="Trazado_2526" data-name="Trazado 2526" d="M296.07,258.075H285.228v-2.212a13.464,13.464,0,0,1-4.5,2.47,16.96,16.96,0,0,1-5.163.775,18.83,18.83,0,0,1-8.259-1.806,20.461,20.461,0,0,1-6.491-4.869,22.26,22.26,0,0,1-4.24-7.116,24.28,24.28,0,0,1-1.512-8.554,22.564,22.564,0,0,1,1.733-8.888,23.5,23.5,0,0,1,4.61-7.116A21.783,21.783,0,0,1,267.973,216a17.683,17.683,0,0,1,7.6-1.733,19.252,19.252,0,0,1,5.31.737,14.178,14.178,0,0,1,4.425,2.065V196.864H296.07Zm-10.693-11.431v-20.5a13.524,13.524,0,0,0-1.7-1,14.329,14.329,0,0,0-2-.811,16.035,16.035,0,0,0-2.073-.516,10.7,10.7,0,0,0-1.851-.185,12.364,12.364,0,0,0-4.85.922,11.083,11.083,0,0,0-3.81,2.655,12.01,12.01,0,0,0-2.517,4.167,15.592,15.592,0,0,0-.888,5.384,15.053,15.053,0,0,0,.888,5.272,12.74,12.74,0,0,0,2.442,4.129,10.77,10.77,0,0,0,3.739,2.693,11.652,11.652,0,0,0,12.622-2.214" transform="translate(43.785 3.076)" fill="#b04390"/>
    <path id="Trazado_2527" data-name="Trazado 2527" d="M336.41,232.158q0,1.035-.111,2.139t-.258,2.287H301.968a14.646,14.646,0,0,0,1.66,3.5,11.6,11.6,0,0,0,2.619,2.875,12.343,12.343,0,0,0,3.5,1.918,12.663,12.663,0,0,0,4.314.7,17.487,17.487,0,0,0,5.753-.995,14.114,14.114,0,0,0,4.793-2.691l6.711,6.71a29.823,29.823,0,0,1-8.666,4.684,29.121,29.121,0,0,1-8.96,1.365,22.95,22.95,0,0,1-16.188-6.564,22.356,22.356,0,0,1-4.831-7.117,22.461,22.461,0,0,1,0-17.477,22.082,22.082,0,0,1,4.867-7.116,23.473,23.473,0,0,1,7.228-4.794,22.225,22.225,0,0,1,8.849-1.77,22.928,22.928,0,0,1,8.629,1.659,23.462,23.462,0,0,1,7.3,4.609,21.559,21.559,0,0,1,6.858,16.076m-11.136-4.129a12.784,12.784,0,0,0-4.462-6.528,11.6,11.6,0,0,0-7.263-2.47,11.346,11.346,0,0,0-7.154,2.47,12.87,12.87,0,0,0-4.426,6.528Z" transform="translate(56.322 7.606)" fill="#b04390"/>
    <path id="Trazado_2528" data-name="Trazado 2528" d="M347.108,195.5a.387.387,0,0,0,.1.011.415.415,0,0,0,.058,0c2.9-.393,3.515-1.949,3.515-3.187v-.339c0-1.946-1.442-3.258-4.284-3.9a.429.429,0,0,0-.2,0c-2.273.562-3.424,1.7-3.424,3.391,0,2.03,1.425,3.384,4.238,4.026" transform="translate(74.498 0)" fill="#1b98d2"/>
    <path id="Trazado_2529" data-name="Trazado 2529" d="M518.507,221.938a.436.436,0,0,0-.22-.061h-.976c-1.494,0-2.878,1.162-4.114,3.453a.415.415,0,0,0-.042.112c-.717,3.281-3.584,7.9-8.5,13.708-5.1,5.207-10.319,7.849-15.521,7.849h-.17a8.525,8.525,0,0,1-6.15-2.17.411.411,0,0,0-.208-.111c-.513-.112-2.087-1.629-5.618-13.279-1.581-5.444-4.747-8.2-9.411-8.2H466.9c-4.048,0-7.929,2.179-11.547,6.494-1.979,2.6-3.388,4.411-4.388,5.657.977-4.08,1.861-7.267,2.636-9.5a.459.459,0,0,0,.023-.142v-1.4a.45.45,0,0,0-.031-.163c-.034-.082-.092-.155-.134-.235a3.941,3.941,0,0,0-1.828-2.01.435.435,0,0,0-.22-.061h-.977c-1.494,0-2.876,1.162-4.114,3.453a.414.414,0,0,0-.04.112c-.718,3.281-3.584,7.9-8.5,13.708-5.1,5.207-10.318,7.849-15.52,7.849h-.17a8.525,8.525,0,0,1-6.15-2.17.417.417,0,0,0-.208-.111c-.513-.112-2.087-1.629-5.619-13.279-1.579-5.444-4.746-8.2-9.411-8.2h-.678c-4.048,0-7.929,2.179-11.547,6.494-1.979,2.6-3.388,4.411-4.39,5.657q1.061-4.422,1.967-7.414a14.8,14.8,0,0,0,1.014-2.349.482.482,0,0,0,.02-.131,2.85,2.85,0,0,0-1.832-2.9,6.665,6.665,0,0,0-.981-.51.432.432,0,0,0-.165-.032,4.07,4.07,0,0,0-3.041,1.693,35.124,35.124,0,0,0-4.788,6.042c-8.925,9.679-17.385,14.587-25.144,14.587a20.4,20.4,0,0,1-7.086-1.238c-5.078-2.181-7.547-5.284-7.547-9.492V232.45c0-4.346,1.852-8.892,3.628-12.8,1.77-3.887,3.9-7.6,5.912-11.368a4.327,4.327,0,0,0,.728-3.2,2.867,2.867,0,0,0-3.446-1.59,6.474,6.474,0,0,0-3.272,2.492c-2.319,2.953-3.7,6.513-5.2,9.955a86.325,86.325,0,0,0-4.149,10.3,18.953,18.953,0,0,0-.209,10.669,17.2,17.2,0,0,0,1.149,3,18.23,18.23,0,0,0,6.584,7.109c5.1,2.365,9.725,3.562,13.76,3.562,6.375,0,13.471-2.84,21.113-8.46,1.037-.864,2.014-1.71,2.941-2.539q-1.336,5.05-2.663,10.81a.486.486,0,0,0,0,.177c.512,2.745,2.035,3.322,3.225,3.322h.339c.865,0,1.838-.555,3.028-1.753,6.919-9.843,11.249-15.77,12.892-17.64,2.617-3.464,5.143-5.218,7.506-5.218l.767,0a2.293,2.293,0,0,1,1.435.768c.323.57,1.346,3.233,4.353,12.49,2.575,6.973,7.566,10.509,14.833,10.509a32.53,32.53,0,0,0,9.836-2.087c2.6-.464,5.911-2.625,10.117-6.607-.483,1.952-.966,3.954-1.447,6.043a.458.458,0,0,0,0,.177c.512,2.745,2.035,3.322,3.225,3.322h.34c.864,0,1.837-.555,3.026-1.753,6.919-9.843,11.249-15.77,12.892-17.64,2.617-3.464,5.143-5.218,7.506-5.218l.767,0a2.293,2.293,0,0,1,1.435.768c.323.57,1.347,3.233,4.354,12.49,2.574,6.973,7.564,10.509,14.831,10.509a32.522,32.522,0,0,0,9.836-2.087c2.8-.5,6.428-2.968,11.113-7.567,5.874-6.7,9.546-12.781,10.914-18.084a.48.48,0,0,0,.014-.107v-.3a3.454,3.454,0,0,0-1.994-2.959" transform="translate(69.933 5.361)" fill="#1b98d2"/>
  </g>
</svg>
