<svg xmlns="http://www.w3.org/2000/svg" width="27.676" height="39.362" viewBox="0 0 27.676 39.362">
  <g id="_001-marcador-de-posicion" data-name="001-marcador-de-posicion" transform="translate(-76)">
    <path id="Trazado_500" data-name="Trazado 500" d="M89.838,0A13.849,13.849,0,0,0,76,13.838,13.646,13.646,0,0,0,78.076,21.1L88.9,38.817a1.093,1.093,0,0,0,.784.531,1.148,1.148,0,0,0,1.176-.554l10.855-17.876a13.648,13.648,0,0,0,1.96-7.081A13.849,13.849,0,0,0,89.838,0Zm0,20.757a6.919,6.919,0,1,1,6.919-6.919A6.91,6.91,0,0,1,89.838,20.757Z" fill="#de096b"/>
    <path id="Trazado_501" data-name="Trazado 501" d="M256,0V6.919a6.919,6.919,0,1,1,0,13.838v18.6a1.142,1.142,0,0,0,1.022-.567l10.855-17.876a13.647,13.647,0,0,0,1.96-7.081A13.849,13.849,0,0,0,256,0Z" transform="translate(-166.162)" fill="#98124f"/>
  </g>
</svg>


