<svg id="_004-medalla" data-name="004-medalla" xmlns="http://www.w3.org/2000/svg" width="38.755" height="52.218" viewBox="0 0 38.755 52.218">
  <path id="Trazado_2593" data-name="Trazado 2593" d="M40.5,55.3A15.3,15.3,0,1,0,55.8,40,15.316,15.316,0,0,0,40.5,55.3ZM55.8,42.04A13.259,13.259,0,1,1,42.54,55.3,13.273,13.273,0,0,1,55.8,42.04Zm0,0" transform="translate(-36.42 -35.92)" fill="#020202"/>
  <path id="Trazado_2594" data-name="Trazado 2594" d="M95.213,100.948l3.953,3.9-.91,5.474a1.02,1.02,0,0,0,1.476,1.072l4.925-2.558,4.925,2.558a1.02,1.02,0,0,0,1.476-1.072l-.91-5.474,3.953-3.9a1.02,1.02,0,0,0-.564-1.735l-5.486-.826-2.482-4.964a1.02,1.02,0,0,0-1.824,0l-2.482,4.964-5.486.826a1.02,1.02,0,0,0-.564,1.735Zm6.878-.623a1.02,1.02,0,0,0,.761-.552l1.807-3.614,1.807,3.614a1.02,1.02,0,0,0,.761.552l3.993.6-2.878,2.835a1.022,1.022,0,0,0-.29.894l.662,3.984-3.585-1.861a1.02,1.02,0,0,0-.94,0L100.6,108.64l.662-3.984a1.019,1.019,0,0,0-.29-.894L98.1,100.927Zm0,0" transform="translate(-85.28 -83.389)" fill="#020202"/>
  <path id="Trazado_2595" data-name="Trazado 2595" d="M182.54,1.02A1.02,1.02,0,1,1,181.52,0,1.02,1.02,0,0,1,182.54,1.02Zm0,0" transform="translate(-162.142)" fill="#020202"/>
  <path id="Trazado_2596" data-name="Trazado 2596" d="M15.071,5.613A19.38,19.38,0,0,0,6.879,38.758L.735,49.587a1.02,1.02,0,0,0,1.094,1.5L8.807,49.64l2.453,6.911a1.02,1.02,0,0,0,1.847.163l6.771-11.9,6.771,11.9a1.019,1.019,0,0,0,.886.516c.03,0,.06,0,.09,0a1.021,1.021,0,0,0,.872-.675l2.452-6.911,6.978,1.449a1.02,1.02,0,0,0,1.094-1.5L32.876,38.758A19.38,19.38,0,0,0,24.684,5.613a1.02,1.02,0,0,0-.5,1.976,17.338,17.338,0,1,1-8.6,0,1.02,1.02,0,1,0-.5-1.976ZM12.436,53.768l-2-5.648a1.02,1.02,0,0,0-1.168-.658L3.621,48.634l4.863-8.57a19.419,19.419,0,0,0,9.684,3.628Zm18.056-6.306a1.02,1.02,0,0,0-1.168.658l-2,5.648L21.588,43.691a19.42,19.42,0,0,0,9.684-3.628l4.863,8.57Zm0,0" transform="translate(-0.5 -5.012)" fill="#020202"/>
</svg>
