<svg xmlns="http://www.w3.org/2000/svg" width="38" height="36.676" viewBox="0 0 38 36.676">
  <g id="Capa_2" data-name="Capa 2" transform="translate(0 -0.024)">
    <g id="Capa_1" data-name="Capa 1" transform="translate(0 0.024)">
      <path id="Trazado_13048" data-name="Trazado 13048" d="M0,23.746c.091-.031.077-.117.1-.184a3.61,3.61,0,0,1,1.825-2.313c1.181-.667,2.351-1.355,3.527-2.031a.7.7,0,0,1,1,.081.6.6,0,0,1-.129.95,10.268,10.268,0,0,1-1.328.805c-.8.462-1.607.919-2.4,1.389a2.108,2.108,0,0,0-.881,3.09c.119.23.267.444.382.676.912,1.555,1.806,3.121,2.7,4.684a2.153,2.153,0,0,0,3.028.833c2.119-1.221,4.24-2.436,6.348-3.67A40.587,40.587,0,0,1,26.96,24.04a29.608,29.608,0,0,1,3.652-.325,1.411,1.411,0,0,0,1.494-.93,1.375,1.375,0,0,0-.185-1.17c-.784-1.347-1.555-2.7-2.337-4.049q-2.419-4.175-4.823-8.35c-.278-.482-.567-.957-.835-1.445-.228-.424-.473-.84-.726-1.251A1.263,1.263,0,0,0,21.171,6.3a2.946,2.946,0,0,0-.352.477,39.323,39.323,0,0,1-3.661,4.851,40.6,40.6,0,0,1-5.441,5.131q-.953.738-1.946,1.422c-.424.291-.418.3-.166.73.443.758.868,1.525,1.319,2.281.7,1.214,1.4,2.43,2.106,3.642a.76.76,0,0,1-.15,1.137.779.779,0,0,1-1.111-.407c-.694-1.215-1.407-2.425-2.1-3.642-.553-1-1.154-1.976-1.709-2.975a1.016,1.016,0,0,1-.154-.408.774.774,0,0,1,.4-.932,38.994,38.994,0,0,0,11.565-11.7,2.652,2.652,0,0,1,4.732.129c.724,1.251,1.449,2.5,2.165,3.756.116.215.215.311.5.226a3.917,3.917,0,0,1,3.769,6.612.3.3,0,0,0-.067.455c.768,1.311,1.532,2.623,2.281,3.945a2.651,2.651,0,0,1-1.667,3.954,14.769,14.769,0,0,1-2.031.159A38.845,38.845,0,0,0,14.761,29.3c-.581.3-1.133.654-1.7.983a5.231,5.231,0,0,1-1.33.859c-.528.321-1.069.62-1.606.926-.248.141-.3.288-.135.534.245.372.434.777.676,1.151.972,1.7,1.958,3.4,2.936,5.1a.779.779,0,0,0,1.233.346c.371-.2.723-.426,1.091-.63a.755.755,0,0,0,.32-1.152c-.81-1.4-1.608-2.8-2.427-4.2-.106-.181-.2-.366-.3-.553A.666.666,0,0,1,13.516,32a.5.5,0,0,1,.288-.239c.52-.14.7-.067.973.4q1.337,2.309,2.668,4.621a2.052,2.052,0,0,1-.776,2.935q-.589.35-1.185.688a2.061,2.061,0,0,1-3.011-.8q-1.861-3.2-3.7-6.417c-.155-.272-.259-.283-.522-.149a3.4,3.4,0,0,1-4.482-1.239C2.612,29.881,1.524,27.924.4,25.992a9.884,9.884,0,0,1-.4-1.059Z" transform="translate(0 -4.071)"/>
      <path id="Trazado_13049" data-name="Trazado 13049" d="M13.479,153.617a5.537,5.537,0,0,1-.671-1.274,2.2,2.2,0,0,1,1.069-2.566c1.216-.711,2.442-1.406,3.659-2.115.478-.278.548-.5.364-1.012a8.061,8.061,0,0,0,1.357-.761c.663,1.1,1.315,2.211,1.924,3.344.027.19-.146.205-.25.267-2.161,1.271-4.341,2.507-6.505,3.769-.171.1-.33.217-.5.313C13.782,153.667,13.635,153.751,13.479,153.617Z" transform="translate(-11.453 -131.423)" fill="#f99e5a"/>
      <path id="Trazado_13050" data-name="Trazado 13050" d="M102.268,265.783l-.216.23c-.694.481-1.45.866-2.182,1.289a8.606,8.606,0,0,0-.8.511c-.269-.455-.532-.915-.811-1.364-.122-.2,0-.257.135-.334q1.572-.9,3.142-1.805a5.757,5.757,0,0,0,.59,1.138A1.066,1.066,0,0,1,102.268,265.783Z" transform="translate(-88.464 -238.098)" fill="#ff7300"/>
      <path id="Trazado_13051" data-name="Trazado 13051" d="M347.221,44.9a.6.6,0,0,1-.328.543c-.524.3-1.043.612-1.573.9a.633.633,0,0,1-.9-.2.626.626,0,0,1,.266-.885c.529-.318,1.06-.634,1.6-.922a.614.614,0,0,1,.932.558Z" transform="translate(-310.177 -39.87)" fill="#603ce6"/>
      <path id="Trazado_13052" data-name="Trazado 13052" d="M357.252,113.984c-.457-.129-1.03-.269-1.587-.456a.589.589,0,0,1-.342-.733.6.6,0,0,1,.677-.442c.563.123,1.122.274,1.671.447a.6.6,0,0,1,.365.724C357.958,113.823,357.7,114,357.252,113.984Z" transform="translate(-320.059 -101.204)" fill="#603ce6"/>
      <path id="Trazado_13053" data-name="Trazado 13053" d="M300.869.815c-.133.466-.27,1.056-.475,1.623a.541.541,0,0,1-.711.312.54.54,0,0,1-.446-.638A16.767,16.767,0,0,1,299.686.4a.6.6,0,0,1,.734-.35C300.7.121,300.882.379,300.869.815Z" transform="translate(-269.546 -0.024)" fill="#603ce6"/>
      <path id="Trazado_13054" data-name="Trazado 13054" d="M111.382,54.867a.68.68,0,0,0,.116-1.014l-2.108-3.68c.043-.178.2-.243.33-.332a46.537,46.537,0,0,0,4.7-3.67c.876-.781,1.744-1.569,2.551-2.419a47.162,47.162,0,0,0,5.3-6.6c.1-.157.117-.352.252-.488q1.514,2.612,3.035,5.22c1.652,2.855,3.3,5.716,4.959,8.568a1.468,1.468,0,0,1,.008,1.761,1.533,1.533,0,0,1-1.278.553,39.164,39.164,0,0,0-8.407,1.271,39.925,39.925,0,0,0-7.519,2.8c-.188.092-.381.175-.571.261-.154.043-.233-.062-.3-.166-.373-.609-.725-1.231-1.066-1.858A.161.161,0,0,1,111.382,54.867Z" transform="translate(-98.541 -33.026)" fill="#dadada"/>
      <path id="Trazado_13055" data-name="Trazado 13055" d="M31.245,183.639c.38.679.757,1.361,1.143,2.036a.893.893,0,0,0,.214.192l-4.166,2.424q-1.106.642-2.214,1.275a2.2,2.2,0,0,1-3.036-.788c-.934-1.587-1.839-3.189-2.756-4.785a.543.543,0,0,0,.355-.074c2.4-1.474,4.869-2.831,7.3-4.254.02-.011.032-.036.048-.055l2.135,3.658C30.532,183.715,30.738,183.792,31.245,183.639Z" transform="translate(-18.404 -161.798)" fill="#ff7300"/>
      <path id="Trazado_13056" data-name="Trazado 13056" d="M108.367,19.336a.839.839,0,0,1-.167.516,44.458,44.458,0,0,1-3.367,4.477,41.839,41.839,0,0,1-3.209,3.42,46.915,46.915,0,0,1-5.383,4.413l-1,.694c-.5-.852-.992-1.71-1.5-2.554-.142-.235.007-.3.152-.4a39.948,39.948,0,0,0,3.561-2.724,40.02,40.02,0,0,0,7.729-8.9,1.62,1.62,0,0,1,.931-.793,1.343,1.343,0,0,1,1.5.537C107.885,18.447,108.117,18.9,108.367,19.336Z" transform="translate(-84.391 -15.703)" fill="#e8e8e8"/>
      <path id="Trazado_13057" data-name="Trazado 13057" d="M106.86,283.01c.016-.255.251-.286.41-.379.833-.5,1.674-.971,2.514-1.452.011-.007.04.019.061.029a.821.821,0,0,0,.1.805q1.311,2.255,2.611,4.519a.854.854,0,0,1-.372,1.376c-.4.228-.786.466-1.19.681a.759.759,0,0,1-1.091-.287C108.881,286.543,107.874,284.775,106.86,283.01Z" transform="translate(-96.262 -253.293)" fill="#f99e5a"/>
      <path id="Trazado_13058" data-name="Trazado 13058" d="M284.723,71.29a2.479,2.479,0,0,1,2.235,1.277,2.535,2.535,0,0,1,.051,2.64c-.162.024-.209-.107-.269-.207-.673-1.127-1.327-2.265-1.972-3.409C284.713,71.5,284.63,71.406,284.723,71.29Z" transform="translate(-256.446 -64.222)" fill="#e8e8e8"/>
      <path id="Trazado_13059" data-name="Trazado 13059" d="M278.655,71.209c.443.9.982,1.745,1.478,2.614a8.189,8.189,0,0,0,.806,1.3c-.106.225-.235.53-.446.55-.227.022-.274-.329-.387-.521-.674-1.147-1.335-2.3-2-3.451-.254-.438-.233-.478.293-.5C278.483,71.2,278.569,71.206,278.655,71.209Z" transform="translate(-250.379 -64.141)" fill="#dadada"/>
    </g>
  </g>
</svg>
