<svg id="Grupo_20286" data-name="Grupo 20286" xmlns="http://www.w3.org/2000/svg" xmlns:xlink="http://www.w3.org/1999/xlink" width="142" height="355.742" viewBox="0 0 142 355.742">
  <defs>
    <clipPath id="clip-path">
      <rect id="Rectángulo_4280" data-name="Rectángulo 4280" width="142" height="355.742" fill="none"/>
    </clipPath>
  </defs>
  <g id="Grupo_20285" data-name="Grupo 20285" clip-path="url(#clip-path)">
    <g id="Grupo_20284" data-name="Grupo 20284">
      <g id="Grupo_20283" data-name="Grupo 20283" clip-path="url(#clip-path)">
        <g id="Grupo_20282" data-name="Grupo 20282" opacity="0.5">
          <g id="Grupo_20281" data-name="Grupo 20281">
            <g id="Grupo_20280" data-name="Grupo 20280" clip-path="url(#clip-path)">
              <path id="Trazado_12955" data-name="Trazado 12955" d="M232.01,366.083h0a95.422,95.422,0,0,0,0,134.949Z" transform="translate(-90.113 -161.662)" fill="#00ffe0"/>
              <path id="Trazado_12956" data-name="Trazado 12956" d="M0,366.083H0A95.422,95.422,0,0,1,0,501.032Z" transform="translate(0 -161.662)" fill="#00ffe0"/>
              <rect id="Rectángulo_4270" data-name="Rectángulo 4270" width="27.948" height="27.945" transform="translate(49.474 299.845)" fill="#ff7415"/>
              <rect id="Rectángulo_4271" data-name="Rectángulo 4271" width="13.973" height="13.976" transform="translate(35.5 327.79)" fill="#ff7415"/>
              <path id="Trazado_12957" data-name="Trazado 12957" d="M142,148.521h0A190.473,190.473,0,0,0,71,0,190.471,190.471,0,0,0,0,148.521q0,5.834.345,11.577h141.3c.23-3.827.355-7.688.355-11.577" transform="translate(0)" fill="#6445ff"/>
              <path id="Trazado_12958" data-name="Trazado 12958" d="M72.342,434.707a191.763,191.763,0,0,0,27.911-27.736,189.977,189.977,0,0,0,41.392-95.231H3.04a190.62,190.62,0,0,0,69.3,122.967" transform="translate(-1.342 -137.664)" fill="#6445ff"/>
              <path id="Trazado_12959" data-name="Trazado 12959" d="M.622,286.71q.423,7.061,1.351,13.976h138.6q.924-6.915,1.344-13.976Z" transform="translate(-0.275 -126.611)" fill="#fff"/>
              <rect id="Rectángulo_4272" data-name="Rectángulo 4272" width="13.976" height="13.976" transform="translate(64.01 341.766)" fill="#ff7415"/>
              <rect id="Rectángulo_4273" data-name="Rectángulo 4273" width="13.976" height="13.973" transform="translate(98.947 306.832)" fill="#ff7415"/>
              <rect id="Rectángulo_4274" data-name="Rectángulo 4274" width="13.976" height="13.976" transform="translate(21.525 341.766)" fill="#ff7415"/>
              <rect id="Rectángulo_4275" data-name="Rectángulo 4275" width="13.976" height="13.976" transform="translate(98.947 334.778)" fill="#ff7415"/>
              <rect id="Rectángulo_4276" data-name="Rectángulo 4276" width="13.973" height="13.976" transform="translate(84.977 320.802)" fill="#ff7415"/>
              <rect id="Rectángulo_4277" data-name="Rectángulo 4277" width="13.973" height="13.976" transform="translate(71.001 334.778)" fill="#ee7525"/>
              <path id="Trazado_12960" data-name="Trazado 12960" d="M100.2,187.663a34.071,34.071,0,1,1,34.073-34.073A34.112,34.112,0,0,1,100.2,187.663" transform="translate(-29.203 -52.78)" fill="#fff"/>
              <path id="Trazado_12961" data-name="Trazado 12961" d="M108.111,185.571h0A24.072,24.072,0,1,1,132.184,161.5a24.075,24.075,0,0,1-24.073,24.073" transform="translate(-37.111 -60.688)" fill="#fff200"/>
              <path id="Trazado_12962" data-name="Trazado 12962" d="M127.149,510.019v42.325a95.145,95.145,0,0,0,27.911-70.061,191.77,191.77,0,0,1-27.911,27.736" transform="translate(-56.149 -212.976)" fill="#6445ff"/>
              <path id="Trazado_12963" data-name="Trazado 12963" d="M127.149,366.083v92.623A191.768,191.768,0,0,0,155.06,430.97a95.077,95.077,0,0,0-27.911-64.887" transform="translate(-56.149 -161.662)" fill="#fff"/>
            </g>
          </g>
        </g>
      </g>
    </g>
  </g>
</svg>
