<svg xmlns="http://www.w3.org/2000/svg" width="124.5" height="124.529" viewBox="0 0 124.5 124.529">
  <g id="Grupo_21676" data-name="Grupo 21676" transform="translate(-725.143 -324.248)">
    <path id="Trazado_15672" data-name="Trazado 15672" d="M788.657,324.248c2.589,1.1,3.832,2.914,3.543,5.158-.352,2.737-2.294,4.34-5.346,4.378A49.2,49.2,0,0,0,766.7,338.06c-17.173,7.89-27.895,21.046-31.142,39.741-2.686,15.467,1.126,29.538,10.987,41.752a50.7,50.7,0,0,0,33.132,18.982c15.191,2.18,28.976-1.521,40.916-11.214a51.614,51.614,0,0,0,18.972-33.152,55.319,55.319,0,0,0,.575-7.616,4.828,4.828,0,0,1,8.041-3.661,5.606,5.606,0,0,1,1.466,2.343v6.317c-.161,1.24-.3,2.485-.487,3.72-2.331,15.1-9.053,27.9-20.6,37.911-15.337,13.3-33.185,18.089-53.12,14.38a59.618,59.618,0,0,1-34.957-20.238c-11.839-13.708-16.744-29.717-14.986-47.7a58.408,58.408,0,0,1,7.978-24.266Q747,332.48,772.787,325.867a86.988,86.988,0,0,1,9.553-1.619Z" fill="#00904c"/>
    <path id="Trazado_15673" data-name="Trazado 15673" d="M826.931,409.125a5,5,0,0,1,3.841,1.827q7.57,8.218,15.135,16.441c1.316,1.43,2.662,2.833,3.93,4.305.63.731,1.041.726,1.725.038,4.11-4.135,8.274-8.217,12.4-12.334q21.155-21.105,42.291-42.229c1.43-1.43,3-2.357,5.091-1.816a4.753,4.753,0,0,1,2.6,7.69,15.363,15.363,0,0,1-1.23,1.34q-29.071,28.992-58.148,57.978c-2.738,2.729-5.476,2.718-8.085-.1-7.584-8.205-15.125-16.451-22.72-24.646-3.281-3.54-.98-7.53,1.746-8.249C825.969,409.244,826.456,409.2,826.931,409.125Z" transform="translate(-67.483 -35.447)" fill="#00904c"/>
  </g>
</svg>
