<svg xmlns="http://www.w3.org/2000/svg" width="10.5" height="11.996" viewBox="0 0 10.5 11.996">
  <path id="trash-alt-regular" d="M6.281,9.747h.563a.281.281,0,0,0,.281-.281V4.4a.281.281,0,0,0-.281-.281H6.281A.281.281,0,0,0,6,4.4V9.466A.281.281,0,0,0,6.281,9.747Zm3.844-7.873H8.194L7.4.546A1.125,1.125,0,0,0,6.432,0H4.069A1.125,1.125,0,0,0,3.1.546l-.8,1.328H.375A.375.375,0,0,0,0,2.249v.375A.375.375,0,0,0,.375,3H.75v7.873A1.125,1.125,0,0,0,1.875,12h6.75A1.125,1.125,0,0,0,9.75,10.872V3h.375a.375.375,0,0,0,.375-.375V2.249A.375.375,0,0,0,10.125,1.874Zm-6.1-.682a.141.141,0,0,1,.121-.068h2.2a.141.141,0,0,1,.121.068l.409.682H3.619Zm4.6,9.679H1.875V3h6.75ZM3.656,9.747h.563A.281.281,0,0,0,4.5,9.466V4.4a.281.281,0,0,0-.281-.281H3.656a.281.281,0,0,0-.281.281V9.466A.281.281,0,0,0,3.656,9.747Z" fill="#db2828"/>
</svg>
