<svg xmlns="http://www.w3.org/2000/svg" width="44.988" height="40" viewBox="0 0 44.988 40">
  <path id="Trazado_13078" data-name="Trazado 13078" d="M17.43-17.5a5.065,5.065,0,0,1,5.07-5,5,5,0,0,1,5,5,5,5,0,0,1-5,5A5.065,5.065,0,0,1,17.43-17.5ZM22.5-15A2.5,2.5,0,0,0,25-17.5,2.5,2.5,0,0,0,22.5-20a2.558,2.558,0,0,0-2.57,2.5A2.558,2.558,0,0,0,22.5-15ZM16.18-3.75A1.211,1.211,0,0,1,14.93-2.5a1.3,1.3,0,0,1-1.25-1.25v-.625A5.667,5.667,0,0,1,19.3-10h6.32A5.621,5.621,0,0,1,31.25-4.375v.625A1.254,1.254,0,0,1,30-2.5a1.254,1.254,0,0,1-1.25-1.25v-.625A3.124,3.124,0,0,0,25.625-7.5H19.3A3.17,3.17,0,0,0,16.18-4.375Zm5.492-30.937a1.253,1.253,0,0,1,1.656,0l21.25,18.75a1.192,1.192,0,0,1,.039,1.766,1.114,1.114,0,0,1-1.7.039L40-16.711V-1.25A6.248,6.248,0,0,1,33.75,5H11.25A6.249,6.249,0,0,1,5-1.25V-16.711L2.077-14.133a1.193,1.193,0,0,1-1.765-.039,1.247,1.247,0,0,1,.11-1.766ZM7.5-18.852v17.6A3.751,3.751,0,0,0,11.25,2.5h22.5A3.751,3.751,0,0,0,37.5-1.25v-17.6l-15-13.231Z" transform="translate(0 35)"/>
</svg>
