<svg xmlns="http://www.w3.org/2000/svg" width="1922" height="865.765" viewBox="0 0 1922 865.765">
  <path id="Sustracción_2" data-name="Sustracción 2" d="M358.4,1294.4h-9.188c-32.112,0-73.292-15.569-87.113-89.74a12.357,12.357,0,0,1,.109-4.777c11.673-50.754,24.458-104.155,39.088-163.255-14.16,13.406-28.119,26.2-41.487,38.041-13.4,11.866-26.618,23.127-39.28,33.468-12.685,10.36-25.178,20.1-37.132,28.936s-23.757,17.074-35.039,24.441-22.382,14.088-33,19.986c-10.6,5.886-21.037,11.125-31.024,15.571a288.345,288.345,0,0,1-29.1,11.195,212.139,212.139,0,0,1-27.236,6.859c-9.383,3.205-18.8,6.333-27.988,9.3V1048.128c16.333-8.785,32.857-18.656,49.112-29.339,16.274-10.694,32.741-22.5,48.944-35.1s32.605-26.342,48.738-40.844,32.447-30.169,48.5-46.57c133-157.008,210.277-281.607,229.7-370.336a11.066,11.066,0,0,1,1.093-3.027,317.059,317.059,0,0,1,25.795-40.681,180.3,180.3,0,0,1,27.179-29.163,119.882,119.882,0,0,1,14.08-10.236,95.759,95.759,0,0,1,14.4-7.324,82.032,82.032,0,0,1,14.7-4.4,77.376,77.376,0,0,1,14.995-1.47h26.4a11.667,11.667,0,0,1,5.94,1.641,158.3,158.3,0,0,1,17.515,12.007,118.753,118.753,0,0,1,14.052,13.076,93.721,93.721,0,0,1,10.613,14.11,80.76,80.76,0,0,1,7.2,15.1c.459.872.99,1.718,1.5,2.535a25.63,25.63,0,0,1,2.1,3.811,12.078,12.078,0,0,1,.84,4.412v37.811a12.477,12.477,0,0,1-.622,3.83c-10.406,29.97-21.7,66.834-33.555,109.568C577.373,690.2,564.7,739.669,551.55,794.573c29.918-37.266,69.8-88.683,118.545-152.824,12.164-14.5,24.609-28.3,36.989-41.009s25.024-24.666,37.621-35.584c12.571-10.895,25.432-21.037,38.224-30.146a433.709,433.709,0,0,1,38.8-24.694,374.449,374.449,0,0,1,39.342-19.23,334.227,334.227,0,0,1,39.855-13.752,311.136,311.136,0,0,1,40.339-8.261,304.18,304.18,0,0,1,40.793-2.757H1000.4c126,0,211.535,74.568,254.237,221.633,95.383,314.7,137.91,355.716,151.766,358.742a11.075,11.075,0,0,1,5.613,2.99c40.335,38.907,96.231,58.635,166.137,58.635h4.592c112.807,0,226.614-46.279,338.26-137.55V1182.1c-8.62,4.753-17.117,9.073-25.257,12.841a299.486,299.486,0,0,1-31.6,12.6,214.987,214.987,0,0,1-29.433,7.572c-27.109,9.26-53.391,17.509-78.115,24.516-24.7,7-48.453,12.934-70.591,17.634-22.16,4.705-43.244,8.29-62.667,10.652A453.894,453.894,0,0,1,1569,1271.5c-196.327,0-331.135-95.522-400.679-283.914-81.679-251.42-109.053-322.258-117.635-337.411-12.354-12.679-25.034-19.466-38.765-20.748l-20.711.074c-63.871,0-132.1,47.43-202.778,140.973-11.033,12.564-26.8,32.209-46.855,58.391-20.035,26.15-44.875,59.5-73.831,99.127-57.867,79.186-134.44,186.527-227.593,319.04a292.331,292.331,0,0,1-23.045,21.063,165.011,165.011,0,0,1-21.128,14.765,94.98,94.98,0,0,1-19.48,8.693A62.031,62.031,0,0,1,358.4,1294.4Z" transform="translate(0.5 -429.132)" fill="#fff300" stroke="rgba(0,0,0,0)" stroke-miterlimit="10" stroke-width="1"/>
</svg>
